<svg width="17" height="16" viewBox="0 0 17 16" fill="none" xmlns="http://www.w3.org/2000/svg">
<path d="M4.51682 14H12.3572C13.7605 14 14.4819 13.2786 14.4819 11.8965V4.01364C14.4819 2.63041 13.7605 1.91016 12.3572 1.91016H4.51682C3.11881 1.91016 2.39209 2.62509 2.39209 4.01364V11.8965C2.39209 13.2839 3.11881 14 4.51682 14ZM4.5904 12.731C3.98816 12.731 3.66107 12.4192 3.66107 11.7899V4.11909C3.66107 3.48978 3.98816 3.17914 4.5904 3.17914H12.2836C12.8805 3.17914 13.2129 3.48978 13.2129 4.11909V11.7899C13.2129 12.4192 12.8805 12.731 12.2836 12.731H4.5904Z" fill="#1B1F23"/>
<path d="M10.4582 9.63445C10.7805 9.63445 10.9935 9.38977 10.9935 9.04753V6.03232C10.9935 5.58954 10.7412 5.39044 10.3387 5.39044H7.31166C6.96177 5.39044 6.73715 5.5981 6.73715 5.9204C6.73715 6.24269 6.96591 6.45035 7.31879 6.45035H8.41252L9.30116 6.34671L8.33856 7.22643L6.06391 9.50103C5.95575 9.61041 5.88696 9.76324 5.88696 9.91495C5.88696 10.2565 6.1226 10.4793 6.44956 10.4793C6.62483 10.4793 6.76888 10.4152 6.8852 10.3001L9.14983 8.03773L10.0243 7.08574L9.92827 8.02153V9.05582C9.92827 9.40569 10.1359 9.63445 10.4582 9.63445Z" fill="#1B1F23"/>
</svg>
