<svg width="13" height="15" viewBox="0 0 13 15" fill="none" xmlns="http://www.w3.org/2000/svg">
<path d="M2.7477 14.023C3.07601 14.023 3.2215 13.8546 3.30065 13.5485L3.80298 11.6456H9.24929L9.75163 13.5485C9.83577 13.8546 9.99739 14.023 10.3035 14.023C10.6634 14.023 10.856 13.8028 10.856 13.4884C10.856 13.4186 10.8487 13.3478 10.8283 13.2719L9.86579 9.65336H10.2546C10.6773 9.65336 10.998 9.36383 10.998 8.98554C10.998 8.57671 10.7034 8.29661 10.2807 8.29661H3.29394C2.77405 8.29661 2.48989 8.03461 2.48989 7.53524V5.94896H3.32249V6.38699C3.32249 7.09206 3.68372 7.43715 4.40814 7.43715H8.70001C9.41944 7.43715 9.78066 7.09206 9.78066 6.38699V5.94896H11.9155C12.2821 5.94896 12.5267 5.71663 12.5267 5.38829C12.5267 5.05281 12.2882 4.82378 11.9366 4.82378H1.06398C0.727385 4.82378 0.499939 5.05781 0.499939 5.38829C0.499939 5.71663 0.739581 5.94896 1.09008 5.94896H1.4668V8.31352C1.4668 9.15466 1.98268 9.65336 2.826 9.65336H3.1865L2.22903 13.2719C2.20854 13.3428 2.19525 13.4064 2.19525 13.4912C2.19525 13.7917 2.37172 14.023 2.7477 14.023ZM4.09202 10.5725L4.33166 9.65336H8.72062L8.96029 10.5725H4.09202ZM4.41558 3.90643H8.70683C9.44879 3.90643 9.80627 3.56507 9.80627 2.83639V1.0679C9.80627 0.341416 9.44879 6.10352e-05 8.70683 6.10352e-05H4.41558C3.6697 6.10352e-05 3.31504 0.341416 3.31504 1.0679V2.83639C3.31504 3.56507 3.6697 3.90643 4.41558 3.90643Z" fill="#1B1F23"/>
</svg>
