<svg width="46" height="50" viewBox="0 0 46 50" fill="none" xmlns="http://www.w3.org/2000/svg">
<path d="M38.0448 47.8951C42.8177 44.9853 45.4923 39.6852 45.4923 34.2431C45.4923 31.5768 44.8506 28.874 43.4979 26.4025C43.2327 25.9196 42.9445 25.4529 42.6332 25.0024C42.9406 24.556 43.2327 24.0893 43.4979 23.6064C44.8237 21.1836 45.5 18.493 45.5 15.7659C45.5 14.3982 45.3309 13.0225 44.9851 11.667C43.9552 7.60877 41.488 4.21608 38.041 2.1139C34.5939 0.0117259 30.5781 -0.544253 26.7353 0.543359C22.8924 1.63097 19.6798 4.23637 17.6892 7.87256C17.424 8.35549 17.1857 8.85466 16.9744 9.36194C16.4517 9.30107 15.9253 9.27266 15.3988 9.27266C11.4176 9.27266 7.67848 10.9081 4.8655 13.8788C2.05252 16.8494 0.5 20.8022 0.5 25.0065C0.5 33.6831 7.18275 40.7404 15.3988 40.7404C15.9253 40.7404 16.4556 40.7079 16.9782 40.6511C17.1896 41.1584 17.4278 41.6535 17.693 42.1404C21.7972 49.6482 30.9278 52.2333 38.0448 47.8951ZM15.3988 11.0218C19.9411 11.0218 24.1836 13.5095 26.6008 17.5474C26.6699 17.7138 26.743 17.8762 26.8313 18.0344C28.0303 20.2259 30.6934 20.9807 32.7686 19.7145C34.1097 18.8948 34.9436 17.3729 34.9436 15.7375C34.9436 14.9339 34.7438 14.1426 34.3595 13.4445C33.1605 11.2531 30.4974 10.4983 28.4223 11.7644C27.45 12.3569 26.7468 13.3269 26.4317 14.4348C25.9782 13.9072 25.4902 13.4121 24.9752 12.9576C25.0521 12.7871 25.1328 12.6207 25.2212 12.4584C26.0512 10.9406 27.3886 9.85705 28.991 9.40253C30.5935 8.948 32.2652 9.18337 33.6985 10.0559C36.6614 11.8618 37.6836 15.8795 35.9697 19.0084C34.2596 22.1333 30.4629 23.2128 27.5 21.4109C26.3587 20.6723 26.0397 20.165 25.4133 19.1626C25.1789 18.7893 24.9137 18.3672 24.564 17.864C22.4236 14.8041 18.9996 12.9738 15.3988 12.9738C12.3591 12.9738 9.5 14.2237 7.35183 16.4923C5.20367 18.7609 4.02007 21.7802 4.02007 24.9903C4.02007 31.6174 9.12724 37.0108 15.4026 37.0108C15.5794 37.0108 15.7562 37.0068 15.9368 36.9946C16.0444 37.648 16.1943 38.2973 16.3787 38.9344C16.0521 38.9588 15.7293 38.975 15.4026 38.975C8.10119 38.975 2.16012 32.701 2.16012 24.9903C2.16012 21.2526 3.53587 17.7422 6.03757 15.1003C8.53544 12.4746 11.8595 11.0177 15.3988 11.0218ZM29.2485 13.2782C30.532 12.4949 32.1806 12.9616 32.9223 14.3171C33.1567 14.7472 33.2835 15.2383 33.2835 15.7334C33.2835 16.748 32.7686 17.6895 31.9385 18.1968C30.655 18.98 29.0064 18.5133 28.2647 17.1578L28.3032 17.1335C28.2301 17.0036 28.1571 16.8738 28.0841 16.7439C27.9688 16.4233 27.9073 16.0824 27.9073 15.7375C27.9035 14.7269 28.4223 13.7854 29.2485 13.2782ZM22.1738 10.6038C24.8561 5.7014 30.8126 4.01316 35.4586 6.84583C37.7067 8.21751 39.3168 10.4333 39.9893 13.0793C40.6618 15.7293 40.316 18.4971 39.0171 20.8711C37.4799 23.6835 34.7361 25.5787 31.6772 25.944C31.1315 26.0089 30.6742 26.0373 30.2746 26.0657C29.0679 26.1428 28.1917 26.1996 26.6853 27.0681L27.0888 27.8473L26.6699 27.0762C22.9155 29.3651 21.6243 34.4541 23.7916 38.419C24.8407 40.3386 26.5393 41.7143 28.5683 42.2866C30.5974 42.8628 32.7186 42.5666 34.5363 41.4587C37.0572 39.9206 38.4675 37.1244 38.4675 34.2512C38.4675 32.843 38.1294 31.4185 37.4146 30.1118C37.3608 30.0103 37.3032 29.9089 37.2417 29.8115C37.795 29.5193 38.333 29.1906 38.848 28.8294C38.9056 28.9308 38.9671 29.0282 39.0248 29.1297C41.7032 34.0321 40.1085 40.3264 35.4663 43.1591C33.2182 44.5308 30.5974 44.896 28.088 44.1858C25.5786 43.4756 23.4842 41.7752 22.1853 39.4011C20.6482 36.5888 20.4637 33.1311 21.6973 30.1524C21.9163 29.6207 22.12 29.1865 22.3006 28.8091C22.8424 27.6647 23.2306 26.8368 23.2728 25.0268V25.0024C23.2728 20.4247 19.7451 16.6993 15.4103 16.6993C11.0756 16.6993 7.54782 20.4247 7.54782 25.0024C7.54782 29.5802 11.0756 33.3056 15.4103 33.3056C15.5218 33.3056 15.6332 33.3016 15.7447 33.2975C15.7062 33.9509 15.7062 34.6043 15.7447 35.2577C15.6332 35.2617 15.5218 35.2698 15.4103 35.2698C10.0495 35.2698 5.68787 30.6637 5.68787 25.0024C5.68787 22.2591 6.69855 19.6821 8.53544 17.7422C10.3723 15.8024 12.8126 14.7351 15.4103 14.7351C18.4846 14.7351 21.4129 16.2975 23.2383 18.911C23.5649 19.3777 23.8147 19.7795 24.0376 20.1366C24.7062 21.2039 25.1904 21.975 26.6546 22.9206L27.0888 22.1738L26.6738 22.9327C30.4283 25.2216 35.2472 23.858 37.4146 19.8931C38.1294 18.5904 38.4675 17.1619 38.4675 15.7537C38.4675 12.8804 37.0572 10.0843 34.5363 8.54623C32.7186 7.43833 30.5974 7.14208 28.5683 7.71835C26.5393 8.29056 24.8446 9.66631 23.7916 11.5859C23.7378 11.6873 23.684 11.7888 23.6302 11.8943C23.1153 11.5331 22.5773 11.2044 22.0201 10.9163C22.0662 10.8107 22.1161 10.7052 22.1738 10.6038ZM31.1123 29.7141C30.9432 29.6938 30.7703 29.6816 30.5935 29.6816C28.1956 29.6816 26.2472 31.7392 26.2472 34.2715C26.2472 36.8039 28.1956 38.8614 30.5935 38.8614C32.9915 38.8614 34.9398 36.8039 34.9398 34.2715C34.9398 33.05 34.4863 31.938 33.7447 31.1142C34.4056 30.964 35.0512 30.7652 35.6815 30.5217C35.7814 30.6759 35.8775 30.8342 35.9658 30.9965C37.6759 34.1254 36.6576 38.1431 33.6947 39.949C32.2575 40.8256 30.5858 41.0569 28.9833 40.6024C27.3809 40.1479 26.0436 39.0643 25.2135 37.5506C23.5034 34.4257 24.5179 30.4162 27.4731 28.6062C28.6529 27.9285 29.2254 27.8919 30.3629 27.8189C30.7857 27.7905 31.2622 27.7621 31.8501 27.689C35.4317 27.2629 38.6405 25.043 40.4428 21.7518C41.4535 19.9012 41.9722 17.8437 41.9722 15.7618C41.9722 14.7188 41.8416 13.6677 41.5803 12.6329C40.7925 9.53239 38.9095 6.93917 36.2771 5.33615C30.8433 2.02056 23.8685 3.99693 20.7289 9.7353C20.6405 9.89763 20.5559 10.064 20.4752 10.2304C19.8834 10.0031 19.2801 9.81241 18.6614 9.66631C18.8036 9.35788 18.9535 9.05351 19.1187 8.7532C20.8864 5.51878 23.7417 3.20557 27.158 2.23971C30.5743 1.27384 34.1443 1.76895 37.2071 3.63575C40.2699 5.50254 42.4603 8.51782 43.3787 12.1256C44.2933 15.7334 43.8245 19.5035 42.0568 22.7379C39.7933 26.8814 35.6315 29.5193 31.1123 29.7141ZM30.5935 31.4754C30.7319 31.4754 30.874 31.4713 31.0124 31.4672C32.2959 31.6823 33.2797 32.8552 33.2797 34.2674C33.2797 35.8339 32.073 37.1082 30.5897 37.1082C29.1063 37.1082 27.8997 35.8339 27.8997 34.2674C27.8997 32.701 29.1063 31.4267 30.5897 31.4267V31.4754H30.5935ZM19.1264 41.2598C16.8552 37.1082 16.7746 31.9826 18.8766 27.7499C18.9765 27.6078 19.0726 27.4536 19.161 27.2954C19.5414 26.5973 19.7451 25.806 19.7451 25.0024C19.7451 23.367 18.9112 21.8411 17.57 21.0254C15.4949 19.7592 12.8318 20.514 11.6328 22.7055C11.2523 23.4035 11.0487 24.1949 11.0487 24.9984C11.0487 26.6339 11.8826 28.1598 13.2237 28.9755C14.2267 29.5883 15.3642 29.7263 16.4095 29.4584C16.2058 30.1402 16.0444 30.8301 15.9291 31.5281C15.7523 31.5444 15.5756 31.5525 15.3988 31.5525C11.9787 31.5525 9.19257 28.6102 9.19257 24.9984C9.19257 21.3825 11.9787 18.4443 15.3988 18.4443C18.819 18.4443 21.6012 21.3825 21.605 24.9903C21.5704 26.4025 21.313 26.9464 20.8057 28.0218C20.6174 28.4195 20.4022 28.874 20.1678 29.4462C18.7267 32.9323 18.9419 36.9784 20.7404 40.2696C22.2583 43.0495 24.7139 45.038 27.6499 45.87C30.5858 46.7019 33.6524 46.2758 36.2848 44.6687C39.9317 42.4448 41.9722 38.3947 41.9722 34.239C41.9722 32.2018 41.4804 30.1361 40.4505 28.2491C40.3621 28.0867 40.266 27.9284 40.1699 27.7702C40.6541 27.3441 41.1114 26.8855 41.5418 26.3944C41.7263 26.6785 41.8992 26.9707 42.0606 27.267C45.7114 33.9468 43.5363 42.5138 37.2148 46.3692C30.8933 50.2326 22.7771 47.9397 19.1264 41.2598ZM17.6892 26.4025C17.62 26.5284 17.5547 26.6582 17.4893 26.7881C16.6708 27.8554 15.2182 28.1719 14.0538 27.4658C13.2237 26.9585 12.7088 26.017 12.7088 25.0024C12.7088 24.5073 12.8318 24.0163 13.07 23.5861C13.8117 22.2307 15.4603 21.764 16.7438 22.5472C17.5739 23.0545 18.0888 23.996 18.0888 25.0106C18.0888 25.5057 17.9658 25.9967 17.7276 26.4269L17.6892 26.4025Z" fill="white"/>
</svg>
