<svg width="17" height="16" viewBox="0 0 17 16" fill="none" xmlns="http://www.w3.org/2000/svg">
<path d="M3.57407 14.9481H16.1736C16.6283 14.9481 17 14.5764 17 14.1217C17 13.6671 16.6283 13.2899 16.1736 13.2899H5.23761L3.57407 14.9481Z" fill="#181025"/>
<path d="M2.70026 14.1588L12.2095 4.6534L10.5853 3.02218L1.06903 12.5345L0.245206 14.517C0.152278 14.7688 0.41261 15.0393 0.653815 14.9425L2.70026 14.1588ZM13.0198 3.857L13.9355 2.95668C14.39 2.50219 14.4085 1.99863 13.9986 1.58037L13.6682 1.24843C13.2585 0.837114 12.7518 0.880954 12.2958 1.32003L11.3816 2.22578L13.0198 3.857Z" fill="#181025"/>
</svg>
