<svg width="24" height="24" viewBox="0 0 24 24" fill="none" xmlns="http://www.w3.org/2000/svg">
<path d="M8.09118 0.304734C6.27319 0.101547 4.39447 0.101547 2.57648 0.304734C1.40691 0.435451 0.46117 1.35646 0.323246 2.5357C0.105793 4.39493 0.105793 6.27316 0.323246 8.13238C0.46117 9.31163 1.40691 10.2326 2.57648 10.3634C4.39447 10.5665 6.27319 10.5665 8.09118 10.3634C9.26076 10.2326 10.2065 9.31163 10.3444 8.13238C10.5619 6.27316 10.5619 4.39493 10.3444 2.5357C10.2065 1.35646 9.26076 0.435451 8.09118 0.304734Z" fill="white"/>
<path d="M8.09118 13.6381C6.27319 13.4349 4.39447 13.4349 2.57648 13.6381C1.40691 13.7688 0.46117 14.6898 0.323246 15.869C0.105793 17.7283 0.105793 19.6065 0.323246 21.4657C0.46117 22.645 1.40691 23.566 2.57648 23.6967C4.39447 23.8999 6.27319 23.8999 8.09118 23.6967C9.26076 23.566 10.2065 22.645 10.3444 21.4657C10.5619 19.6065 10.5619 17.7283 10.3444 15.869C10.2065 14.6898 9.26076 13.7688 8.09118 13.6381Z" fill="white"/>
<path d="M21.4245 0.304734C19.6065 0.101547 17.7278 0.101547 15.9098 0.304734C14.7403 0.435451 13.7945 1.35646 13.6566 2.5357C13.4391 4.39493 13.4391 6.27316 13.6566 8.13238C13.7945 9.31163 14.7403 10.2326 15.9098 10.3634C17.7278 10.5665 19.6065 10.5665 21.4245 10.3634C22.5941 10.2326 23.5398 9.31163 23.6778 8.13238C23.8952 6.27316 23.8952 4.39493 23.6778 2.5357C23.5398 1.35646 22.5941 0.435451 21.4245 0.304734Z" fill="white"/>
<path d="M21.4245 13.6381C19.6065 13.4349 17.7278 13.4349 15.9098 13.6381C14.7403 13.7688 13.7945 14.6898 13.6566 15.869C13.4391 17.7283 13.4391 19.6065 13.6566 21.4657C13.7945 22.645 14.7403 23.566 15.9098 23.6967C17.7278 23.8999 19.6065 23.8999 21.4245 23.6967C22.5941 23.566 23.5398 22.645 23.6778 21.4657C23.8952 19.6065 23.8952 17.7283 23.6778 15.869C23.5398 14.6898 22.5941 13.7688 21.4245 13.6381Z" fill="white"/>
</svg>
