<svg width="22" height="25" viewBox="0 0 22 25" fill="none" xmlns="http://www.w3.org/2000/svg">
<path fill-rule="evenodd" clip-rule="evenodd" d="M0 6.66927C0 3.17147 2.83553 0.335938 6.33333 0.335938H19.6667C20.9553 0.335938 22 1.38061 22 2.66927V22.6693C22 23.9579 20.9553 25.0026 19.6667 25.0026H5C2.23858 25.0026 0 22.764 0 20.0026V6.66927ZM20 2.66927V15.0026H5C3.87439 15.0026 2.83566 15.3745 2 16.0022V6.66927C2 4.27604 3.9401 2.33594 6.33333 2.33594H10.6105C10.2595 4.97799 10.291 7.65899 10.7059 10.296L10.7891 10.8247C10.8487 11.2034 11.1195 11.5147 11.4863 11.6261C11.8532 11.7375 12.2514 11.6294 12.5115 11.3478L14.3333 9.37557L16.1552 11.3478C16.4153 11.6294 16.8135 11.7375 17.1803 11.6261C17.5472 11.5147 17.818 11.2034 17.8776 10.8247L17.9608 10.296C18.3757 7.65898 18.4072 4.97799 18.0562 2.33594H19.6667C19.8508 2.33594 20 2.48518 20 2.66927ZM16.0372 2.33594H12.6295C12.34 4.35485 12.2917 6.4002 12.4852 8.42884L13.3539 7.48835C13.8818 6.91687 14.7849 6.91687 15.3128 7.48835L16.1815 8.42884C16.375 6.4002 16.3267 4.35485 16.0372 2.33594ZM5 17.0026H20V22.6693C20 22.8534 19.8508 23.0026 19.6667 23.0026H5C3.34315 23.0026 2 21.6595 2 20.0026C2 18.3457 3.34315 17.0026 5 17.0026Z" fill="white"/>
</svg>
