<svg width="23" height="24" viewBox="0 0 23 24" fill="none" xmlns="http://www.w3.org/2000/svg">
<path d="M15.4761 0.666016C15.6529 0.666016 15.8225 0.736253 15.9475 0.861278L19.7188 4.63251C19.9791 4.89286 19.9791 5.31497 19.7188 5.57532L7.46224 17.8318C7.37848 17.9156 7.27392 17.9755 7.15932 18.0055L2.05475 19.3388C1.82575 19.3986 1.58222 19.3325 1.41486 19.1652C1.2475 18.9978 1.18143 18.7543 1.24124 18.5253L2.57457 13.4207C2.60451 13.3061 2.66444 13.2016 2.74819 13.1178L15.0047 0.861278C15.1297 0.736253 15.2993 0.666016 15.4761 0.666016Z" fill="white"/>
<path d="M1.33398 21.666C0.7817 21.666 0.333984 22.1137 0.333984 22.666C0.333984 23.2183 0.7817 23.666 1.33398 23.666H21.334C21.8863 23.666 22.334 23.2183 22.334 22.666C22.334 22.1137 21.8863 21.666 21.334 21.666H1.33398Z" fill="white"/>
</svg>
