<svg width="20" height="26" viewBox="0 0 20 26" fill="none" xmlns="http://www.w3.org/2000/svg">
<path d="M15.5087 1.24673C11.8687 0.636506 8.13299 0.636507 4.49306 1.24673C3.16326 1.46967 2.10425 2.49056 1.83761 3.81425C0.616122 9.87838 0.549474 16.1185 1.64117 22.2073L2.08563 24.6863C2.22268 25.4507 3.15456 25.7562 3.71757 25.2213L9.08253 20.1246C9.59715 19.6357 10.4046 19.6357 10.9192 20.1246L16.2841 25.2213C16.8472 25.7562 17.779 25.4507 17.9161 24.6863L18.3606 22.2073C19.4522 16.1185 19.3856 9.87837 18.1641 3.81425C17.8975 2.49056 16.8385 1.46967 15.5087 1.24673Z" fill="white"/>
</svg>
