<svg width="26" height="34" viewBox="0 0 26 34" fill="none" xmlns="http://www.w3.org/2000/svg">
<path fill-rule="evenodd" clip-rule="evenodd" d="M16.7507 1.16667C16.7507 0.936548 16.5641 0.75 16.334 0.75H4.66732C2.13601 0.75 0.0839844 2.80203 0.0839844 5.33333V28.6667C0.0839844 31.198 2.13601 33.25 4.66732 33.25H21.334C23.8653 33.25 25.9173 31.198 25.9173 28.6667V12.2451C25.9173 12.015 25.7308 11.8284 25.5007 11.8284H18.0007C17.3103 11.8284 16.7507 11.2688 16.7507 10.5784V1.16667ZM18.0007 17.4167C18.691 17.4167 19.2507 17.9763 19.2507 18.6667C19.2507 19.357 18.691 19.9167 18.0007 19.9167H8.00065C7.3103 19.9167 6.75065 19.357 6.75065 18.6667C6.75065 17.9763 7.3103 17.4167 8.00065 17.4167H18.0007ZM18.0007 24.0833C18.691 24.0833 19.2507 24.643 19.2507 25.3333C19.2507 26.0237 18.691 26.5833 18.0007 26.5833H8.00065C7.3103 26.5833 6.75065 26.0237 6.75065 25.3333C6.75065 24.643 7.3103 24.0833 8.00065 24.0833H18.0007Z" fill="#7953B5"/>
<path d="M19.2507 1.70689C19.2507 1.3994 19.5717 1.20416 19.811 1.39731C20.0125 1.56 20.1936 1.7506 20.3482 1.96592L25.3701 8.96241C25.4845 9.1217 25.3606 9.32843 25.1646 9.32843H19.6673C19.4372 9.32843 19.2507 9.14188 19.2507 8.91177V1.70689Z" fill="#7953B5"/>
</svg>
