<svg width="20" height="16" viewBox="0 0 20 16" fill="none" xmlns="http://www.w3.org/2000/svg">
<path fill-rule="evenodd" clip-rule="evenodd" d="M5.26784 0.658431C8.41688 0.38469 11.5837 0.38469 14.7328 0.65843L16.243 0.789712C17.6881 0.915329 18.8588 2.01497 19.0745 3.44937C19.5281 6.46608 19.5281 9.53367 19.0745 12.5504C19.0348 12.8143 18.9628 13.0668 18.8627 13.3041C18.7963 13.4614 18.5915 13.4853 18.4767 13.3589L14.0553 8.49537C13.8555 8.27563 13.5449 8.19445 13.2631 8.28837L10.7323 9.13198L7.06086 5.00161C6.92363 4.84722 6.7288 4.75627 6.52233 4.7502C6.31586 4.74413 6.11603 4.82349 5.96997 4.96955L1.05585 9.88367C0.904607 10.0349 0.646667 9.93865 0.634608 9.7251C0.516372 7.63123 0.613559 5.52822 0.926168 3.44936C1.14187 2.01497 2.31254 0.915329 3.7576 0.789712L5.26784 0.658431ZM12.0003 4.99988C12.0003 4.17145 12.6719 3.49988 13.5003 3.49988C14.3287 3.49988 15.0003 4.17145 15.0003 4.99988C15.0003 5.82831 14.3287 6.49988 13.5003 6.49988C12.6719 6.49988 12.0003 5.82831 12.0003 4.99988Z" fill="#DCD8E4"/>
<path d="M0.961639 12.0992C0.906286 12.1546 0.879991 12.2326 0.891017 12.3102C0.902415 12.3903 0.914132 12.4703 0.926168 12.5504C1.14187 13.9848 2.31254 15.0844 3.75761 15.21L5.26784 15.3413C8.41688 15.6151 11.5837 15.6151 14.7328 15.3413L16.243 15.21C16.6677 15.1731 17.0686 15.0521 17.4286 14.8632C17.565 14.7916 17.588 14.6113 17.4843 14.4973L13.3835 9.98639C13.3169 9.91314 13.2134 9.88608 13.1195 9.91739L10.7375 10.7114C10.4528 10.8063 10.1391 10.7224 9.93974 10.4982L6.64434 6.79082C6.54877 6.68331 6.38242 6.67842 6.28071 6.78013L0.961639 12.0992Z" fill="#DCD8E4"/>
</svg>
