<svg width="26" height="22" viewBox="0 0 26 22" fill="none" xmlns="http://www.w3.org/2000/svg">
<path d="M9.99943 11.3333C9.99943 9.67648 11.3426 8.33333 12.9994 8.33333C14.6563 8.33333 15.9994 9.67648 15.9994 11.3333C15.9994 12.9902 14.6563 14.3333 12.9994 14.3333C11.3426 14.3333 9.99943 12.9902 9.99943 11.3333Z" fill="#7953B5"/>
<path fill-rule="evenodd" clip-rule="evenodd" d="M6.96431 4.18993C6.96431 1.8759 8.8402 0 11.1542 0H14.8445C17.1586 0 19.0345 1.87589 19.0345 4.18993C19.0345 4.20972 19.0497 4.22619 19.0694 4.22779L22.0422 4.46922C23.3738 4.57737 24.469 5.56209 24.7175 6.87479C25.3518 10.2245 25.3991 13.659 24.8573 17.0249L24.7276 17.8305C24.4832 19.3491 23.2334 20.5044 21.7003 20.6289L19.1106 20.8392C15.0431 21.1695 10.9556 21.1695 6.88822 20.8392L4.29845 20.6289C2.76541 20.5044 1.51558 19.3491 1.27116 17.8305L1.14149 17.0249C0.599718 13.659 0.647011 10.2245 1.28126 6.87479C1.52981 5.56209 2.62496 4.57737 3.9566 4.46922L6.9294 4.22779C6.94912 4.22619 6.96431 4.20972 6.96431 4.18993ZM12.9994 6.33333C10.238 6.33333 7.99943 8.57191 7.99943 11.3333C7.99943 14.0948 10.238 16.3333 12.9994 16.3333C15.7609 16.3333 17.9994 14.0948 17.9994 11.3333C17.9994 8.57191 15.7609 6.33333 12.9994 6.33333Z" fill="#7953B5"/>
</svg>
