<svg width="72"
  height="72"
  viewBox="0 0 72 72"
  fill="none"
  xmlns="http://www.w3.org/2000/svg">
  <rect x="72"
    y="72"
    width="72"
    height="72"
    rx="16"
    transform="rotate(-180 72 72)"
    fill="url(#paint0_linear_2878_5826)" />
  <rect x="71.5"
    y="71.5"
    width="71"
    height="71"
    rx="15.5"
    transform="rotate(-180 71.5 71.5)"
    stroke="white"
    stroke-opacity="0.85" />
  <path fill-rule="evenodd"
    clip-rule="evenodd"
    d="M18.7055 36.5693L22.4943 25.8424C22.5131 25.789 22.5356 25.737 22.5615 25.6867C23.1943 24.457 24.3305 23.5145 25.5426 22.8873C26.7641 22.2554 28.1822 21.8799 29.5192 21.8799C31.4329 21.8799 33.3356 22.6479 34.7642 23.8662C35.2222 24.2568 35.6418 24.7032 36.0007 25.1966C36.3595 24.7032 36.7791 24.2568 37.2371 23.8662C38.6657 22.6479 40.5684 21.8799 42.4821 21.8799C43.8191 21.8799 45.2373 22.2554 46.4587 22.8873C47.6708 23.5145 48.807 24.457 49.4398 25.6867C49.4657 25.737 49.4882 25.789 49.507 25.8424L53.2958 36.5692C53.6967 37.5666 53.9173 38.6558 53.9173 39.7966C53.9173 44.5779 50.0413 48.4539 45.2599 48.4539C40.9031 48.4539 37.2979 45.2356 36.6921 41.0466H35.3092C34.7034 45.2356 31.0982 48.4539 26.7414 48.4539C21.9614 48.4539 18.0862 44.5801 18.084 39.8006M22.9703 32.0014L24.8204 26.7634C25.1559 26.1581 25.8105 25.5636 26.6915 25.1077C27.5958 24.6398 28.6227 24.3799 29.5192 24.3799C30.7873 24.3799 32.1254 24.9015 33.142 25.7685C34.1565 26.6335 34.7507 27.7496 34.7507 28.8912V36.5038C33.455 33.3556 30.357 31.1391 26.7414 31.1391C25.3896 31.1391 24.1102 31.4489 22.9703 32.0014ZM32.7737 38.5556C32.8557 38.9565 32.8988 39.3715 32.8988 39.7966C32.8988 43.1972 30.142 45.9539 26.7414 45.9539C23.3407 45.9539 20.584 43.1972 20.584 39.7965C20.584 37.2559 22.1228 35.0746 24.3192 34.1338C24.3648 34.1143 24.4108 34.0953 24.457 34.0768C25.1635 33.7944 25.9345 33.6391 26.7414 33.6391C28.8667 33.6391 30.7405 34.7159 31.8471 36.3536C32.2897 37.0089 32.6096 37.7539 32.7737 38.5556ZM37.2507 36.5039C37.5746 35.7168 38.0111 34.988 38.5403 34.3374C40.1277 32.3859 42.5482 31.1391 45.2599 31.1391C45.2976 31.1391 45.3352 31.1394 45.3728 31.1399C46.1778 31.1501 46.9561 31.2703 47.6936 31.4859C48.1566 31.6213 48.6036 31.7943 49.0311 32.0014L47.1809 26.7634C46.8454 26.1581 46.1908 25.5636 45.3098 25.1077C44.4055 24.6398 43.3786 24.3799 42.4821 24.3799C41.214 24.3799 39.8759 24.9015 38.8593 25.7685C37.8448 26.6335 37.2507 27.7496 37.2507 28.8912V36.5039ZM39.1025 39.7965C39.1025 39.7965 39.1025 39.7965 39.1025 39.7965C39.1025 43.1972 41.8593 45.9539 45.2599 45.9539C48.6593 45.9539 51.4153 43.1991 51.4173 39.8002C51.4173 39.799 51.4173 39.7978 51.4173 39.7966C51.4173 39.7454 51.4167 39.6944 51.4155 39.6435C51.414 39.5821 51.4116 39.5209 51.4083 39.46C51.2776 37.0336 49.7422 34.9806 47.601 34.0998C46.879 33.8028 46.0884 33.6391 45.2599 33.6391C43.1345 33.6391 41.2606 34.716 40.1541 36.3539C39.4902 37.3366 39.1025 38.5213 39.1025 39.7965Z"
    fill="url(#paint1_linear_2878_5826)" />
  <path
    d="M18.7055 36.5693C18.3046 37.5666 18.084 38.6558 18.084 39.7965C18.084 39.7965 18.084 39.7965 18.084 39.7965"
    fill="url(#paint2_linear_2878_5826)" />
  <defs>
    <linearGradient id="paint0_linear_2878_5826"
      x1="48.5"
      y1="45.5"
      x2="146.073"
      y2="141.902"
      gradientUnits="userSpaceOnUse">
      <stop stop-color="#A377EC" />
      <stop offset="0.820635"
        stop-color="#783BDC" />
    </linearGradient>
    <linearGradient id="paint1_linear_2878_5826"
      x1="24.7086"
      y1="26.0555"
      x2="43.2933"
      y2="55.5878"
      gradientUnits="userSpaceOnUse">
      <stop stop-color="#FFE08A" />
      <stop offset="1"
        stop-color="#FFAF19" />
    </linearGradient>
    <linearGradient id="paint2_linear_2878_5826"
      x1="24.7086"
      y1="26.0555"
      x2="43.2933"
      y2="55.5878"
      gradientUnits="userSpaceOnUse">
      <stop stop-color="#FFE08A" />
      <stop offset="1"
        stop-color="#FFAF19" />
    </linearGradient>
  </defs>
</svg>