<svg width="72" height="72" viewBox="0 0 72 72" fill="none" xmlns="http://www.w3.org/2000/svg">
<rect x="72" y="72" width="72" height="72" rx="12" transform="rotate(-180 72 72)" fill="url(#paint0_linear_2878_5825)"/>
<rect x="71.5" y="71.5" width="71" height="71" rx="11.5" transform="rotate(-180 71.5 71.5)" stroke="white" stroke-opacity="0.85"/>
<path d="M35.9167 18C36.607 18 37.1667 18.5596 37.1667 19.2499V20.9164C37.1667 21.6067 36.607 22.1663 35.9167 22.1663C35.2263 22.1663 34.6667 21.6067 34.6667 20.9164V19.2499C34.6667 18.5596 35.2263 18 35.9167 18Z" fill="url(#paint1_linear_2878_5825)"/>
<path fill-rule="evenodd" clip-rule="evenodd" d="M26.3333 35.915C26.3333 30.6228 30.6239 26.3326 35.9167 26.3326C41.2094 26.3326 45.5 30.6228 45.5 35.915C45.5 41.2072 41.2094 45.4974 35.9167 45.4974C30.6239 45.4974 26.3333 41.2072 26.3333 35.915ZM35.9167 28.8323C32.0047 28.8323 28.8333 32.0033 28.8333 35.915C28.8333 39.8267 32.0047 42.9977 35.9167 42.9977C39.8287 42.9977 43 39.8267 43 35.915C43 32.0033 39.8287 28.8323 35.9167 28.8323Z" fill="url(#paint2_linear_2878_5825)"/>
<path d="M25.0155 23.2472C24.5273 22.7591 23.7358 22.7591 23.2477 23.2472C22.7595 23.7353 22.7595 24.5267 23.2477 25.0148L24.4262 26.1932C24.9144 26.6813 25.7058 26.6813 26.194 26.1932C26.6821 25.7051 26.6821 24.9137 26.194 24.4256L25.0155 23.2472Z" fill="url(#paint3_linear_2878_5825)"/>
<path d="M53.8333 35.915C53.8333 36.6053 53.2737 37.1649 52.5833 37.1649H50.9167C50.2263 37.1649 49.6667 36.6053 49.6667 35.915C49.6667 35.2247 50.2263 34.6651 50.9167 34.6651H52.5833C53.2737 34.6651 53.8333 35.2247 53.8333 35.915Z" fill="url(#paint4_linear_2878_5825)"/>
<path d="M48.5856 25.0148C49.0738 24.5267 49.0738 23.7353 48.5856 23.2472C48.0975 22.7591 47.306 22.7591 46.8179 23.2472L45.6393 24.4256C45.1512 24.9137 45.1512 25.7051 45.6393 26.1932C46.1275 26.6813 46.919 26.6813 47.4071 26.1932L48.5856 25.0148Z" fill="url(#paint5_linear_2878_5825)"/>
<path d="M35.9167 49.6637C36.607 49.6637 37.1667 50.2233 37.1667 50.9136V52.5801C37.1667 53.2704 36.607 53.83 35.9167 53.83C35.2263 53.83 34.6667 53.2704 34.6667 52.5801V50.9136C34.6667 50.2233 35.2263 49.6637 35.9167 49.6637Z" fill="url(#paint6_linear_2878_5825)"/>
<path d="M47.4072 45.6368C46.9191 45.1487 46.1276 45.1487 45.6395 45.6368C45.1513 46.1249 45.1513 46.9163 45.6395 47.4044L46.818 48.5828C47.3061 49.0709 48.0976 49.0709 48.5857 48.5828C49.0739 48.0947 49.0739 47.3033 48.5857 46.8152L47.4072 45.6368Z" fill="url(#paint7_linear_2878_5825)"/>
<path d="M22.1667 35.915C22.1667 36.6053 21.607 37.1649 20.9167 37.1649H19.25C18.5596 37.1649 18 36.6053 18 35.915C18 35.2247 18.5596 34.6651 19.25 34.6651H20.9167C21.607 34.6651 22.1667 35.2247 22.1667 35.915Z" fill="url(#paint8_linear_2878_5825)"/>
<path d="M26.1939 47.4044C26.682 46.9163 26.682 46.1249 26.1939 45.6368C25.7057 45.1487 24.9142 45.1487 24.4261 45.6368L23.2476 46.8152C22.7594 47.3033 22.7594 48.0947 23.2476 48.5828C23.7357 49.0709 24.5272 49.0709 25.0153 48.5828L26.1939 47.4044Z" fill="url(#paint9_linear_2878_5825)"/>
<defs>
<linearGradient id="paint0_linear_2878_5825" x1="48.5" y1="45.5" x2="146.073" y2="141.902" gradientUnits="userSpaceOnUse">
<stop stop-color="#A377EC"/>
<stop offset="0.820635" stop-color="#783BDC"/>
</linearGradient>
<linearGradient id="paint1_linear_2878_5825" x1="24.6246" y1="23.63" x2="52.0475" y2="55.9496" gradientUnits="userSpaceOnUse">
<stop stop-color="#FFE08A"/>
<stop offset="1" stop-color="#FFAF19"/>
</linearGradient>
<linearGradient id="paint2_linear_2878_5825" x1="24.6246" y1="23.63" x2="52.0475" y2="55.9496" gradientUnits="userSpaceOnUse">
<stop stop-color="#FFE08A"/>
<stop offset="1" stop-color="#FFAF19"/>
</linearGradient>
<linearGradient id="paint3_linear_2878_5825" x1="24.6246" y1="23.63" x2="52.0475" y2="55.9496" gradientUnits="userSpaceOnUse">
<stop stop-color="#FFE08A"/>
<stop offset="1" stop-color="#FFAF19"/>
</linearGradient>
<linearGradient id="paint4_linear_2878_5825" x1="24.6246" y1="23.63" x2="52.0475" y2="55.9496" gradientUnits="userSpaceOnUse">
<stop stop-color="#FFE08A"/>
<stop offset="1" stop-color="#FFAF19"/>
</linearGradient>
<linearGradient id="paint5_linear_2878_5825" x1="24.6246" y1="23.63" x2="52.0475" y2="55.9496" gradientUnits="userSpaceOnUse">
<stop stop-color="#FFE08A"/>
<stop offset="1" stop-color="#FFAF19"/>
</linearGradient>
<linearGradient id="paint6_linear_2878_5825" x1="24.6246" y1="23.63" x2="52.0475" y2="55.9496" gradientUnits="userSpaceOnUse">
<stop stop-color="#FFE08A"/>
<stop offset="1" stop-color="#FFAF19"/>
</linearGradient>
<linearGradient id="paint7_linear_2878_5825" x1="24.6246" y1="23.63" x2="52.0475" y2="55.9496" gradientUnits="userSpaceOnUse">
<stop stop-color="#FFE08A"/>
<stop offset="1" stop-color="#FFAF19"/>
</linearGradient>
<linearGradient id="paint8_linear_2878_5825" x1="24.6246" y1="23.63" x2="52.0475" y2="55.9496" gradientUnits="userSpaceOnUse">
<stop stop-color="#FFE08A"/>
<stop offset="1" stop-color="#FFAF19"/>
</linearGradient>
<linearGradient id="paint9_linear_2878_5825" x1="24.6246" y1="23.63" x2="52.0475" y2="55.9496" gradientUnits="userSpaceOnUse">
<stop stop-color="#FFE08A"/>
<stop offset="1" stop-color="#FFAF19"/>
</linearGradient>
</defs>
</svg>
