<svg width="72" height="72" viewBox="0 0 72 72" fill="none" xmlns="http://www.w3.org/2000/svg">
<rect x="72" y="72" width="72" height="72" rx="16" transform="rotate(-180 72 72)" fill="url(#paint0_linear_2878_5793)"/>
<rect x="71.5" y="71.5" width="71" height="71" rx="15.5" transform="rotate(-180 71.5 71.5)" stroke="white" stroke-opacity="0.85"/>
<path fill-rule="evenodd" clip-rule="evenodd" d="M43.2276 21.7831C42.9931 21.5487 42.6752 21.417 42.3437 21.417C42.0122 21.417 41.6942 21.5487 41.4598 21.7831L26.1391 37.1038C25.9821 37.2608 25.8697 37.4569 25.8136 37.6717L24.1469 44.0524C24.0348 44.4818 24.1587 44.9384 24.4725 45.2522C24.7863 45.566 25.2429 45.6899 25.6723 45.5778L32.053 43.9111C32.2679 43.855 32.4639 43.7426 32.621 43.5856L47.9416 28.2649C48.4298 27.7768 48.4298 26.9853 47.9416 26.4972L43.2276 21.7831ZM28.1467 38.6317L42.3437 24.4348L45.29 27.381L31.093 41.578L27.1051 42.6196L28.1467 38.6317Z" fill="url(#paint1_linear_2878_5793)"/>
<path d="M24.666 48.0837C23.9757 48.0837 23.416 48.6433 23.416 49.3337C23.416 50.024 23.9757 50.5837 24.666 50.5837H49.666C50.3564 50.5837 50.916 50.024 50.916 49.3337C50.916 48.6433 50.3564 48.0837 49.666 48.0837H24.666Z" fill="url(#paint2_linear_2878_5793)"/>
<defs>
<linearGradient id="paint0_linear_2878_5793" x1="48.5" y1="45.5" x2="146.073" y2="141.902" gradientUnits="userSpaceOnUse">
<stop stop-color="#A377EC"/>
<stop offset="0.820635" stop-color="#783BDC"/>
</linearGradient>
<linearGradient id="paint1_linear_2878_5793" x1="28.5" y1="26" x2="51" y2="51" gradientUnits="userSpaceOnUse">
<stop stop-color="#FFE08A"/>
<stop offset="1" stop-color="#FFAF19"/>
</linearGradient>
<linearGradient id="paint2_linear_2878_5793" x1="28.5" y1="26" x2="51" y2="51" gradientUnits="userSpaceOnUse">
<stop stop-color="#FFE08A"/>
<stop offset="1" stop-color="#FFAF19"/>
</linearGradient>
</defs>
</svg>
