<svg viewBox="0 0 548 92" fill="none" xmlns="http://www.w3.org/2000/svg">
<path d="M20.0813 91.057C9.30654 91.057 2.84165 85.0702 2.84165 75.7572C2.84165 66.5774 9.30654 60.9896 19.9467 56.8653L41.9003 47.6854C41.3616 41.1664 38.3985 36.776 29.3746 36.776C20.6201 36.776 13.7511 41.8316 9.97996 48.6167L0.956055 37.9734C6.07409 31.0552 16.3102 23.6049 30.8562 23.6049C47.1531 23.6049 56.3117 32.7848 56.3117 48.7498V73.0964C56.3117 76.0233 57.3891 76.9546 59.8135 76.9546H63.9887V89.7266H54.6954C47.6918 89.7266 42.1697 86.5336 42.1697 77.2207V72.4312C40.1494 80.9459 33.8192 91.057 20.0813 91.057ZM17.3876 73.4955C17.3876 77.2207 19.9467 79.4824 25.4688 79.4824C35.4355 79.4824 42.1697 73.6286 42.1697 64.8478V57.9297L25.3341 65.38C19.6773 67.9078 17.3876 70.1695 17.3876 73.4955Z" fill="#FDFEFE"/>
<path d="M87.9153 89.7266H72.8306V0.588684H87.9153V89.7266Z" fill="#FDFEFE"/>
<path d="M116.262 89.7266H101.178V0.588684H116.262V42.3638C118.417 32.2526 124.209 23.6049 137.273 23.6049C153.301 23.6049 163.537 36.5099 163.537 57.3975C163.537 78.285 153.301 91.1901 137.004 91.1901C123.939 91.1901 118.417 82.5424 116.262 72.5642V89.7266ZM116.262 61.5218C116.262 72.1651 120.707 79.0833 131.347 79.0833C140.91 79.0833 148.048 72.0321 148.048 57.3975C148.048 42.8959 140.91 35.7117 131.347 35.7117C120.707 35.7117 116.262 42.7629 116.262 53.4062V61.5218Z" fill="#FDFEFE"/>
<path d="M187.065 91.057C176.29 91.057 169.825 85.0702 169.825 75.7572C169.825 66.5774 176.29 60.9896 186.93 56.8653L208.884 47.6854C208.345 41.1664 205.382 36.776 196.358 36.776C187.603 36.776 180.734 41.8316 176.963 48.6167L167.939 37.9734C173.057 31.0552 183.293 23.6049 197.839 23.6049C214.136 23.6049 223.295 32.7848 223.295 48.7498V73.0964C223.295 76.0233 224.372 76.9546 226.797 76.9546H230.972V89.7266H221.679C214.675 89.7266 209.153 86.5336 209.153 77.2207V72.4312C207.133 80.9459 200.803 91.057 187.065 91.057ZM184.371 73.4955C184.371 77.2207 186.93 79.4824 192.452 79.4824C202.419 79.4824 209.153 73.6286 209.153 64.8478V57.9297L192.317 65.38C186.661 67.9078 184.371 70.1695 184.371 73.4955Z" fill="#FDFEFE"/>
<path d="M254.899 89.7266H239.814V24.9353H254.899V42.6299C257.323 32.3856 264.057 23.6049 277.122 23.6049C289.917 23.6049 297.729 31.1883 297.729 44.6255V89.7266H282.509V49.1489C282.509 41.1664 279.815 35.7117 269.714 35.7117C258.67 35.7117 254.899 42.7629 254.899 53.4062V89.7266Z" fill="#FDFEFE"/>
<path d="M332.508 91.1901C320.117 91.1901 312.978 83.4737 312.978 72.0321V36.5099H302.742V24.9353H312.978V17.0859L328.063 7.63989V24.9353H348.131V36.5099H328.063V68.4399C328.063 75.4912 331.43 77.2207 335.875 77.2207C340.993 77.2207 344.764 73.0964 346.65 69.3712L351.364 82.6754C348.535 86.7997 342.07 91.1901 332.508 91.1901Z" fill="#FDFEFE"/>
<path d="M383.294 91.057C369.286 91.057 356.491 85.4693 351.508 75.2251L360.397 65.9122C364.034 72.4312 372.115 79.0833 383.832 79.0833C390.297 79.0833 394.473 76.8216 394.473 72.1651C394.473 67.3756 389.489 65.7791 382.216 64.0496L373.462 61.9209C363.091 59.5262 353.528 55.0027 353.528 43.162C353.528 31.0552 363.36 23.7379 378.445 23.7379C392.452 23.7379 402.284 30.39 406.325 37.7073L397.436 47.0202C392.856 39.836 385.853 35.5786 377.367 35.5786C371.576 35.5786 367.67 37.9734 367.67 42.3638C367.67 47.0202 371.172 48.7498 380.061 51.0115L388.008 53.0071C402.688 56.7323 408.076 62.5861 408.076 71.899C408.076 84.671 397.166 91.057 383.294 91.057Z" fill="#FDFEFE"/>
<path d="M432.404 89.7266H417.319V0.588684H432.404V42.6299C434.829 32.3856 441.563 23.6049 454.627 23.6049C467.422 23.6049 475.234 31.1883 475.234 44.6255V89.7266H460.015V49.1489C460.015 41.1664 457.321 35.7117 447.22 35.7117C436.175 35.7117 432.404 42.7629 432.404 53.4062V89.7266Z" fill="#FDFEFE"/>
<path d="M515.366 91.057C496.51 91.057 483.58 77.4868 483.58 57.3975C483.58 37.1751 496.51 23.6049 515.366 23.6049C534.491 23.6049 547.421 37.1751 547.421 57.3975C547.421 77.4868 534.491 91.057 515.366 91.057ZM515.501 78.6842C525.333 78.6842 532.067 72.2982 532.067 57.3975C532.067 42.3638 525.333 35.9778 515.501 35.9778C505.803 35.9778 499.069 42.3638 499.069 57.3975C499.069 72.2982 505.803 78.6842 515.501 78.6842Z" fill="#FDFEFE"/>
</svg>
