<svg width="24" height="24" viewBox="0 0 24 24" fill="none" xmlns="http://www.w3.org/2000/svg">
<path d="M18.334 10.6649C18.334 11.2172 17.8863 11.6649 17.334 11.6649H6.66732C6.11503 11.6649 5.66732 11.2172 5.66732 10.6649C5.66732 10.1126 6.11503 9.66488 6.66732 9.66488H17.334C17.8863 9.66488 18.334 10.1126 18.334 10.6649Z" fill="white"/>
<path fill-rule="evenodd" clip-rule="evenodd" d="M1.8481 6.86047L3.43306 2.53035C3.8325 1.43909 4.80129 0.657128 5.95226 0.496958C9.96521 -0.0614851 14.0362 -0.0614863 18.0491 0.496957C19.2001 0.657128 20.1689 1.4391 20.5683 2.53037L22.1534 6.86088C22.4499 7.32339 22.6541 7.8521 22.7398 8.42207L22.8757 9.32586C23.4087 12.8707 23.3589 16.4788 22.7281 20.0076C22.4485 21.572 21.1638 22.7603 19.5823 22.9173L17.9417 23.0801C13.9907 23.4723 10.0106 23.4723 6.05954 23.0801L4.41892 22.9173C2.83749 22.7603 1.55274 21.572 1.27311 20.0076C0.642345 16.4788 0.592508 12.8707 1.12557 9.32586L1.26147 8.42207C1.34721 7.85193 1.5515 7.32308 1.8481 6.86047ZM6.22793 2.47787C10.058 1.94488 13.9434 1.94488 17.7735 2.47787C18.1923 2.53615 18.5448 2.82071 18.6902 3.21782L19.3651 5.06179C19.3047 5.05299 19.2438 5.04553 19.1825 5.03944L17.8782 4.90999C13.9694 4.52203 10.0318 4.52203 6.12304 4.90999L4.81878 5.03944C4.75752 5.04552 4.69667 5.05298 4.63625 5.06177L5.3112 3.21781C5.45655 2.82071 5.80909 2.53615 6.22793 2.47787ZM3.58153 7.86618L3.60641 7.87529L3.63728 7.79096C3.96494 7.36981 4.45709 7.08517 5.01632 7.02966L6.32057 6.90021C10.098 6.52529 13.9032 6.52529 17.6807 6.90021L18.9849 7.02966C19.5443 7.08518 20.0365 7.36993 20.3642 7.79122L20.3949 7.87528L20.4197 7.86621C20.5946 8.11407 20.7146 8.40413 20.762 8.71948L20.8979 9.62327C21.3986 12.9526 21.3518 16.3414 20.7593 19.6557C20.6371 20.3392 20.0758 20.8585 19.3848 20.927L17.7442 21.0899C13.9245 21.469 10.0767 21.469 6.25708 21.0899L4.61646 20.927C3.92545 20.8585 3.36409 20.3392 3.2419 19.6557C2.64948 16.3414 2.60267 12.9526 3.10333 9.62327L3.23924 8.71948C3.28666 8.40412 3.40669 8.11405 3.58153 7.86618Z" fill="white"/>
</svg>
