<svg width="26" height="24" viewBox="0 0 26 24" fill="none" xmlns="http://www.w3.org/2000/svg">
<path fill-rule="evenodd" clip-rule="evenodd" d="M10.9811 1.48258C11.8803 -0.0671116 14.1182 -0.0671073 15.0175 1.48258L17.7713 6.22839C18.0251 6.66584 18.4638 6.96436 18.9639 7.03989L23.5368 7.73057C25.5301 8.03163 26.2293 10.5484 24.6769 11.8345L21.3451 14.5949C20.8774 14.9824 20.6575 15.5935 20.7711 16.1901L21.7044 21.0914C22.07 23.0114 20.0545 24.5031 18.3252 23.5925L13.7758 21.1971C13.2898 20.9412 12.7088 20.9412 12.2228 21.1971L7.6734 23.5925C5.94405 24.5031 3.92855 23.0114 4.29415 21.0914L5.22746 16.1901C5.34106 15.5935 5.12117 14.9824 4.65351 14.5949L1.32164 11.8345C-0.230738 10.5484 0.468467 8.03163 2.46179 7.73057L7.03466 7.03989C7.53474 6.96436 7.97347 6.66584 8.2273 6.22839L10.9811 1.48258ZM13.2876 2.48635C13.1591 2.26497 12.8394 2.26497 12.711 2.48635L9.95717 7.23216C9.39874 8.19454 8.43353 8.85129 7.33334 9.01746L2.76048 9.70814C2.47572 9.75115 2.37584 10.1107 2.5976 10.2944L5.92947 13.0548C6.95831 13.9072 7.44208 15.2518 7.19215 16.5642L6.25884 21.4655C6.20662 21.7398 6.49454 21.9529 6.7416 21.8228L11.291 19.4274C12.3603 18.8644 13.6383 18.8644 14.7076 19.4274L19.257 21.8228C19.504 21.9529 19.792 21.7398 19.7397 21.4655L18.8064 16.5642C18.5565 15.2518 19.0403 13.9072 20.0691 13.0548L23.401 10.2944C23.6227 10.1107 23.5229 9.75115 23.2381 9.70814L18.6652 9.01746C17.565 8.85129 16.5998 8.19455 16.0414 7.23217L13.2876 2.48635Z" fill="white"/>
</svg>
