<svg width="22" height="23" viewBox="0 0 22 23" fill="none" xmlns="http://www.w3.org/2000/svg">
<path fill-rule="evenodd" clip-rule="evenodd" d="M5.33268 6.0026C5.33268 2.87299 7.86974 0.335938 10.9993 0.335938C14.129 0.335938 16.666 2.87299 16.666 6.0026C16.666 9.13222 14.129 11.6693 10.9993 11.6693C7.86974 11.6693 5.33268 9.13222 5.33268 6.0026ZM10.9993 2.33594C8.97431 2.33594 7.33268 3.97756 7.33268 6.0026C7.33268 8.02765 8.97431 9.66927 10.9993 9.66927C13.0244 9.66927 14.666 8.02765 14.666 6.0026C14.666 3.97756 13.0244 2.33594 10.9993 2.33594Z" fill="white"/>
<path fill-rule="evenodd" clip-rule="evenodd" d="M5.66602 15.6693C4.00916 15.6693 2.66602 17.0124 2.66602 18.6693V20.2536C2.66602 20.2778 2.6835 20.2983 2.70731 20.3022C8.19898 21.1988 13.7997 21.1988 19.2914 20.3022C19.3152 20.2983 19.3327 20.2778 19.3327 20.2536V18.6693C19.3327 17.0124 17.9895 15.6693 16.3327 15.6693H15.8782C15.8431 15.6693 15.8081 15.6748 15.7747 15.6857L14.6207 16.0626C12.2676 16.8309 9.7311 16.8309 7.37799 16.0626L6.22398 15.6857C6.19057 15.6748 6.15565 15.6693 6.12051 15.6693H5.66602ZM0.666016 18.6693C0.666016 15.9078 2.90459 13.6693 5.66602 13.6693H6.12051C6.3665 13.6693 6.61094 13.7082 6.84478 13.7845L7.9988 14.1613C9.94851 14.798 12.0502 14.798 13.9999 14.1613L15.1539 13.7845C15.3878 13.7082 15.6322 13.6693 15.8782 13.6693H16.3327C19.0941 13.6693 21.3327 15.9078 21.3327 18.6693V20.2536C21.3327 21.258 20.6048 22.1143 19.6137 22.2761C13.9086 23.2075 8.09015 23.2075 2.38504 22.2761C1.39386 22.1143 0.666016 21.258 0.666016 20.2536V18.6693Z" fill="white"/>
</svg>
