<svg width="24" height="23" viewBox="0 0 24 23" fill="none" xmlns="http://www.w3.org/2000/svg">
<path fill-rule="evenodd" clip-rule="evenodd" d="M2.12308 15.4056C-0.874074 8.049 4.53807 0 12.4818 0H12.9104C18.8512 0 23.6672 4.81601 23.6672 10.7569C23.6672 17.3713 18.3052 22.7333 11.6908 22.7333H1.26373C0.839385 22.7333 0.461248 22.4655 0.320411 22.0652C0.179574 21.6649 0.306708 21.2193 0.637565 20.9536L3.26622 18.8426C3.38116 18.7503 3.42182 18.5935 3.3662 18.4569L2.12308 15.4056ZM12.4818 2C5.95844 2 1.51401 8.6098 3.97526 14.6511L5.21838 17.7023C5.60771 18.658 5.32311 19.7558 4.51855 20.402L4.10595 20.7333H11.6908C17.2006 20.7333 21.6672 16.2667 21.6672 10.7569C21.6672 5.92058 17.7467 2 12.9104 2H12.4818Z" fill="white"/>
</svg>
