<svg width="22" height="26" viewBox="0 0 22 26" fill="none" xmlns="http://www.w3.org/2000/svg">
<path d="M15.9993 14.3333C15.9993 13.781 15.5516 13.3333 14.9993 13.3333H6.99935C6.44706 13.3333 5.99935 13.781 5.99935 14.3333C5.99935 14.8856 6.44706 15.3333 6.99935 15.3333H14.9993C15.5516 15.3333 15.9993 14.8856 15.9993 14.3333Z" fill="white"/>
<path d="M15.9993 19.6667C15.9993 19.1144 15.5516 18.6667 14.9993 18.6667H6.99935C6.44706 18.6667 5.99935 19.1144 5.99935 19.6667C5.99935 20.219 6.44706 20.6667 6.99935 20.6667H14.9993C15.5516 20.6667 15.9993 20.219 15.9993 19.6667Z" fill="white"/>
<path fill-rule="evenodd" clip-rule="evenodd" d="M4.33268 0C2.30764 0 0.666016 1.64162 0.666016 3.66667V22.3333C0.666016 24.3584 2.30764 26 4.33268 26H17.666C19.6911 26 21.3327 24.3584 21.3327 22.3333V7.62354C21.3327 7.11585 21.1671 6.62201 20.861 6.21693L16.864 0.926722C16.423 0.343064 15.7338 0 15.0023 0H4.33268ZM2.66602 3.66667C2.66602 2.74619 3.41221 2 4.33268 2H13.9993V7.86273C13.9993 8.41501 14.4471 8.86273 14.9993 8.86273H19.3327V22.3333C19.3327 23.2538 18.5865 24 17.666 24H4.33268C3.41221 24 2.66602 23.2538 2.66602 22.3333V3.66667Z" fill="white"/>
</svg>
