<svg width="22" height="24" viewBox="0 0 22 24" fill="none" xmlns="http://www.w3.org/2000/svg">
<path fill-rule="evenodd" clip-rule="evenodd" d="M9.31652 18.1705C8.28505 18.1705 7.42462 17.3822 7.33455 16.3547C7.14622 14.2063 7.09856 12.0484 7.19171 9.89462C7.07928 9.88709 6.96686 9.87924 6.85446 9.87104L4.86839 9.72627C3.59898 9.63373 2.88938 8.21831 3.5747 7.1458C5.03628 4.85845 7.71525 2.29838 9.91985 0.714731C10.5649 0.251339 11.4338 0.25134 12.0789 0.714731C14.2835 2.29838 16.9625 4.85845 18.424 7.1458C19.1094 8.21831 18.3998 9.63373 17.1304 9.72627L15.1443 9.87104C15.0319 9.87923 14.9195 9.88709 14.807 9.89462C14.9002 12.0484 14.8525 14.2063 14.6642 16.3547C14.5741 17.3822 13.7137 18.1705 12.6822 18.1705H9.31652ZM9.24132 9.01756C9.08971 11.4005 9.11802 13.7916 9.32607 16.1705H12.6727C12.8807 13.7916 12.909 11.4005 12.7574 9.01756C12.7404 8.75041 12.8312 8.48759 13.0096 8.28793C13.1879 8.08827 13.4388 7.96845 13.7062 7.95528C14.1373 7.93404 14.5682 7.90773 14.9989 7.87633L16.4413 7.77119C15.1619 5.88679 13.5599 4.24112 11.7078 2.91065L10.9994 2.4018L10.291 2.91065C8.43884 4.24113 6.83685 5.8868 5.55745 7.77119L6.99986 7.87633C7.43051 7.90773 7.86143 7.93404 8.29255 7.95528C8.55992 7.96845 8.81085 8.08827 8.98917 8.28793C9.1675 8.48759 9.25832 8.75041 9.24132 9.01756Z" fill="white"/>
<path d="M2.66602 18.6675C2.66602 18.1152 2.2183 17.6675 1.66602 17.6675C1.11373 17.6675 0.666016 18.1152 0.666016 18.6675V21.3342C0.666016 22.6229 1.71069 23.6675 2.99935 23.6675H18.9993C20.288 23.6675 21.3327 22.6229 21.3327 21.3342V18.6675C21.3327 18.1152 20.885 17.6675 20.3327 17.6675C19.7804 17.6675 19.3327 18.1152 19.3327 18.6675V21.3342C19.3327 21.5183 19.1834 21.6675 18.9993 21.6675H2.99935C2.81525 21.6675 2.66602 21.5183 2.66602 21.3342V18.6675Z" fill="white"/>
</svg>
