<svg width="26" height="18" viewBox="0 0 26 18" fill="none" xmlns="http://www.w3.org/2000/svg">
<path fill-rule="evenodd" clip-rule="evenodd" d="M15.7492 0.495002C12.5955 0.163641 9.41701 0.138991 6.2585 0.421399L4.14945 0.609972C2.40659 0.765805 0.998399 2.09727 0.745269 3.82868C0.243764 7.25898 0.243764 10.744 0.74527 14.1743C0.9984 15.9057 2.40659 17.2371 4.14945 17.393L6.2585 17.5815C9.41701 17.864 12.5955 17.8393 15.7492 17.5079L16.5595 17.4228C18.2183 17.2485 19.5604 16.0138 19.8836 14.3929L23.9461 16.5512C24.2423 16.7086 24.5977 16.707 24.8925 16.5469C25.1872 16.3868 25.3821 16.0896 25.4114 15.7555L25.4446 15.377C25.8165 11.1348 25.8165 6.86816 25.4446 2.62593L25.4114 2.24747C25.3821 1.91332 25.1872 1.6161 24.8925 1.45603C24.5977 1.29595 24.2423 1.29432 23.9461 1.45171L19.8836 3.61005C19.5604 1.98919 18.2183 0.75443 16.5595 0.58014L15.7492 0.495002ZM6.43661 2.41345C9.46629 2.14256 12.5151 2.16621 15.5402 2.48405L16.3505 2.56919C17.166 2.65487 17.8196 3.28252 17.9382 4.09385C18.414 7.3483 18.414 10.6546 17.9382 13.9091C17.8196 14.7204 17.166 15.3481 16.3505 15.4338L15.5402 15.5189C12.5151 15.8367 9.4663 15.8604 6.43661 15.5895L4.32757 15.4009C3.5067 15.3275 2.84345 14.7004 2.72423 13.8849C2.25078 10.6465 2.25078 7.35644 2.72423 4.118C2.84345 3.30253 3.5067 2.67542 4.32757 2.60203L6.43661 2.41345ZM20.1462 5.73525C20.3446 7.90821 20.3446 10.0947 20.1462 12.2677L23.5422 14.072C23.784 10.696 23.784 7.30699 23.5422 3.93099L20.1462 5.73525Z" fill="white"/>
</svg>
