<svg width="32"
  height="34"
  viewBox="0 0 32 34"
  fill="none"
  xmlns="http://www.w3.org/2000/svg">
  <path
    d="M16 6.71015C12.5806 6.71015 9.80645 9.48434 9.80645 12.9037C9.80645 16.3231 12.5806 19.0972 16 19.0972C19.4194 19.0972 22.1935 16.3231 22.1935 12.9037C22.1935 9.48434 19.4194 6.71015 16 6.71015ZM16 16.0005C14.2903 16.0005 12.9032 14.6134 12.9032 12.9037C12.9032 11.194 14.2903 9.80692 16 9.80692C17.7097 9.80692 19.0968 11.194 19.0968 12.9037C19.0968 14.6134 17.7097 16.0005 16 16.0005ZM16 0.516602C7.16129 0.516602 0 7.67789 0 16.5166C0 25.3553 7.16129 32.5166 16 32.5166C24.8387 32.5166 32 25.3553 32 16.5166C32 7.67789 24.8387 0.516602 16 0.516602ZM16 29.4198C12.7935 29.4198 9.86452 28.2392 7.60645 26.2972C8.56774 24.8134 10.2129 23.8069 12.0968 23.7489C13.4387 24.1618 14.7161 24.3682 16 24.3682C17.2839 24.3682 18.5613 24.1682 19.9032 23.7489C21.7871 23.8134 23.4323 24.8134 24.3935 26.2972C22.1355 28.2392 19.2065 29.4198 16 29.4198ZM26.4968 23.994C24.9226 21.9682 22.4903 20.6456 19.7161 20.6456C19.0581 20.6456 18.0387 21.265 16 21.265C13.9677 21.265 12.9419 20.6456 12.2839 20.6456C9.51613 20.6456 7.08387 21.9682 5.50323 23.994C3.99355 21.8843 3.09677 19.3037 3.09677 16.5166C3.09677 9.40047 8.88387 3.61338 16 3.61338C23.1161 3.61338 28.9032 9.40047 28.9032 16.5166C28.9032 19.3037 28.0065 21.8843 26.4968 23.994Z"
    fill="#F2EBFE" />
</svg>