<svg width="5" height="18" viewBox="0 0 5 18" fill="none" xmlns="http://www.w3.org/2000/svg">
<path d="M3.33996 3.01869C3.61528 2.43363 3.93485 1.85349 4.24458 1.2881C4.38224 1.03737 4.52482 0.776796 4.66248 0.521142C4.68706 0.476894 4.71164 0.437562 4.74114 0.383481C4.75589 0.358899 4.77064 0.329401 4.79031 0.299902L4.95747 0.00491636H4.61823C4.51499 0.00491636 4.41666 0.00491636 4.31833 0.00491636C4.22492 0.00491636 4.13151 0.00491636 4.03809 0.00491636C3.83652 0.00491636 3.67919 0.00491643 3.53662 0H3.5317C3.39404 0 3.2908 0.0540808 3.21705 0.167159C3.10889 0.329401 2.99581 0.491643 2.88765 0.648969C2.67624 0.953788 2.455 1.27336 2.25343 1.59292C0.935824 3.70699 0.213108 5.76206 0.0459497 7.86137C-0.0425461 8.94299 -0.00321454 10.0099 0.163944 11.0325C0.340936 12.1436 0.675253 13.235 1.18165 14.3707C1.7667 15.6785 2.43042 16.8044 3.21213 17.8171C3.25146 17.8663 3.33996 17.9843 3.52187 17.9843C3.5317 17.9843 3.53662 17.9843 3.54645 17.9843C3.60053 17.9794 3.65461 17.9794 3.72836 17.9794C3.77261 17.9794 3.81685 17.9794 3.8611 17.9794C3.90535 17.9794 3.95451 17.9794 3.99876 17.9794H4.29866H4.61332H4.95255L4.78539 17.6844C4.77556 17.6697 4.76572 17.6549 4.76081 17.6402C4.74606 17.6156 4.73131 17.591 4.71656 17.5664C4.2495 16.7994 3.85618 16.062 3.51203 15.3147C2.31734 12.6893 1.86503 10 2.16985 7.32548C2.35667 5.71781 2.73524 4.30188 3.33996 3.01869Z" fill="black"/>
</svg>
