<svg width="6" height="18" viewBox="0 0 6 18" fill="none" xmlns="http://www.w3.org/2000/svg">
<path d="M4.94358 4.54568C4.40769 3.11008 3.6309 1.70398 2.57386 0.248718C2.45587 0.0815591 2.31329 0.0078125 2.12155 0.0078125C2.11172 0.0078125 2.10188 0.0078125 2.09205 0.0078125C1.97406 0.0127289 1.85115 0.0127289 1.69382 0.0127289C1.60041 0.0127289 1.507 0.0127289 1.41358 0.0127289C1.31526 0.0127289 1.22184 0.0127289 1.1186 0.0127289H0.794113L0.941606 0.297882C0.951439 0.312631 0.956355 0.327381 0.961272 0.34213C0.976021 0.371629 0.985855 0.391294 1.0006 0.415877C1.0596 0.514205 1.11368 0.61745 1.16776 0.715779C1.29559 0.946851 1.42833 1.18284 1.56599 1.41391C2.69186 3.32149 3.36541 5.40606 3.57681 7.60862C3.74397 9.34412 3.59156 11.0845 3.12942 12.7856C2.69186 14.3933 1.99372 15.9666 1.0006 17.5841C0.985855 17.6086 0.971106 17.6332 0.956357 17.6578C0.95144 17.6726 0.941607 17.6824 0.931774 17.7021L0.769531 17.997H1.10385H1.15793H1.19726H1.23659H1.24151C1.32509 17.997 1.40867 17.997 1.49225 17.997C1.57583 17.997 1.65941 17.997 1.74299 17.997C1.90523 17.997 2.03797 17.997 2.15597 18.002H2.1658C2.31329 18.002 2.42637 17.943 2.51978 17.825C3.10484 17.0629 3.63581 16.2124 4.10287 15.2979C5.07141 13.4002 5.59255 11.6057 5.6958 9.81118C5.81871 7.9626 5.55814 6.19268 4.94358 4.54568Z" fill="black"/>
</svg>
