<svg width="71" height="84" viewBox="0 0 71 84" fill="none" xmlns="http://www.w3.org/2000/svg">
<path d="M68.5137 22.1948C68.5137 22.1948 68.2672 22.3092 67.9366 22.3003C67.7097 22.3245 67.4828 22.3487 67.1327 22.43C66.7826 22.5114 66.5557 22.5355 66.0823 22.6741C64.5781 22.9665 62.3344 23.602 59.7854 24.6226C54.5838 26.6308 47.6037 30.1945 40.3492 35.0213C38.5258 36.2731 36.6828 37.6152 34.9434 38.9903C33.204 40.3653 31.7168 42.1102 30.4174 44.0113C29.1179 45.9124 28.1097 48.0029 27.6198 50.2585C27.4883 51.3742 27.3373 52.5802 27.64 53.7378C27.9427 54.8954 28.3882 55.9056 29.2484 57.048C30.0244 58.067 31.0274 59.0619 32.0892 59.7862C33.151 60.5104 34.3752 60.997 35.6778 61.1227C38.1597 61.4313 40.5658 60.5582 42.4088 59.2161C46.0949 56.532 48.1447 51.6865 45.6173 47.5047C44.5189 45.4182 42.8884 43.741 40.835 42.9901C38.8012 42.149 36.6302 41.9395 34.7114 42.0998C30.7701 42.3873 27.3331 43.4143 24.434 44.5163C18.6162 46.8104 14.6388 49.3052 11.7902 51.195C6.05389 55.155 4.83846 57.1794 4.54711 56.9901C4.44345 56.9571 4.56102 56.4157 5.33401 55.408C6.107 54.4002 7.45137 52.8028 10.1122 50.7567C12.6499 48.7678 16.4199 46.2069 21.966 43.6333C24.781 42.4081 28.0499 41.1345 32.2769 40.5522C34.3385 40.2445 36.6915 40.1262 39.2379 40.6483C39.8598 40.8464 40.5013 40.9544 41.1036 41.2428C41.4146 41.3419 41.7255 41.441 42.0169 41.6303C42.3083 41.8196 42.6192 41.9187 43.0142 42.1411C43.3056 42.3304 43.5969 42.5197 43.8883 42.709C44.1796 42.8984 44.471 43.0877 44.7427 43.3672C45.2863 43.9263 45.8494 44.3952 46.166 44.9784C47.0261 46.1207 47.6398 47.3775 48.1302 48.6914C48.6206 50.0053 48.7609 51.4006 48.6939 52.7298C48.4561 55.3551 47.1819 57.6502 45.3446 59.4764C43.5072 61.3026 40.9835 62.7171 37.9302 62.9982C36.4652 63.1101 34.748 62.8523 33.2129 62.2666C31.6777 61.6809 30.2405 60.6441 29.1535 59.5259C28.0664 58.4077 27.1026 57.2324 26.4245 55.7622C25.8501 54.325 25.6061 52.8967 25.6732 51.5675C25.8268 48.8189 26.8938 46.4578 28.2128 44.4664C29.5515 42.3848 31.0779 40.4595 32.8565 38.904C33.8172 38.0525 34.7387 37.3815 35.6602 36.7105C36.5817 36.0395 37.6068 35.4015 38.5284 34.7305C46.1526 29.732 53.4633 26.1772 59.0794 24.3012C61.8357 23.3466 64.183 22.7441 65.8946 22.5178C66.6985 22.3881 67.3792 22.3156 67.8134 22.3575C68.2868 22.219 68.5137 22.1948 68.5137 22.1948Z" fill="#21ECAC"/>
<path d="M13.3769 40.146C13.4632 40.2719 12.9614 41.0003 12.0186 42.1807C11.0758 43.3611 9.77813 45.1193 8.4198 47.154C8.08528 47.6396 7.83705 48.2511 7.48229 48.8289C7.31503 49.0717 7.12754 49.4067 6.96028 49.6495C6.79302 49.8923 6.71204 50.261 6.52454 50.5959C6.27632 51.2074 5.92156 51.7852 5.6531 52.4889C5.40487 53.1003 5.1364 53.804 4.88818 54.4155C4.63995 55.027 4.47803 55.7643 4.22981 56.3758C3.98158 56.9872 3.81965 57.7246 3.67797 58.3697C3.53628 59.0149 3.26781 59.7186 3.23267 60.3974L3.13146 60.8582L3.11122 60.9504C4.32363 61.1366 5.4295 61.2891 6.42883 61.408C7.64124 61.5942 8.85365 61.7804 9.83274 61.9914C10.8321 62.1102 11.7909 62.4134 12.5367 62.6492C13.3027 62.7928 14.0485 63.0286 14.5812 63.197C16.9048 64.0303 17.6101 64.4504 17.5493 64.7269C17.4886 65.0034 16.8089 64.9856 14.724 64.6221C13.6383 64.3774 12.1926 64.216 10.341 63.8277C8.3423 63.59 5.81094 63.1839 2.70641 62.7937C2.36655 62.7849 1.9404 62.6501 1.60054 62.6412L1.04761 62.565L0.707762 62.5561C0.728002 62.4639 0.748244 62.3717 0.768484 62.2796C0.91017 61.6344 1.05186 60.9892 1.19354 60.3441C1.33523 59.6989 1.49714 58.9616 1.76561 58.2579C2.06922 56.8754 2.60616 55.4681 3.14309 54.0608C3.41155 53.3572 3.78655 52.6872 4.03477 52.0758C4.30324 51.3721 4.658 50.7943 5.03301 50.1243C5.65623 48.8429 6.4723 47.721 7.26813 46.6913C7.62289 46.1135 8.06395 45.6615 8.39847 45.1759C8.83953 44.7239 9.17405 44.2383 9.48833 43.8449C10.1371 42.9658 10.9585 42.3384 11.5466 41.7358C12.4692 40.6476 13.2704 40.1123 13.3769 40.146Z" fill="#21ECAC"/>
</svg>
