<svg width="30" height="32" viewBox="0 0 30 32" fill="none" xmlns="http://www.w3.org/2000/svg">
<path d="M24.2537 30.3045C27.3369 28.4634 29.0647 25.1099 29.0647 21.6665C29.0647 19.9795 28.6502 18.2694 27.7763 16.7056C27.605 16.4001 27.4189 16.1048 27.2178 15.8197C27.4164 15.5373 27.605 15.242 27.7763 14.9364C28.6328 13.4035 29.0697 11.701 29.0697 9.9755C29.0697 9.11016 28.9605 8.23968 28.737 7.38205C28.0717 4.81428 26.478 2.66763 24.2512 1.33752C22.0245 0.0074193 19.4303 -0.344364 16.9478 0.343798C14.4653 1.03196 12.39 2.68047 11.1041 4.98119C10.9328 5.28675 10.7789 5.60259 10.6423 5.92356C10.3047 5.88504 9.96463 5.86707 9.62453 5.86707C7.05269 5.86707 4.63725 6.90188 2.82008 8.78149C1.00292 10.6611 0 13.1621 0 15.8223C0 21.3122 4.31701 25.7775 9.62453 25.7775C9.96463 25.7775 10.3072 25.757 10.6448 25.7211C10.7814 26.042 10.9353 26.3553 11.1066 26.6634C13.7578 31.4138 19.6562 33.0495 24.2537 30.3045ZM9.62453 6.97377C12.5588 6.97377 15.2994 8.54782 16.8609 11.1027C16.9056 11.208 16.9528 11.3107 17.0099 11.4109C17.7844 12.7975 19.5047 13.2751 20.8453 12.4739C21.7117 11.9552 22.2504 10.9923 22.2504 9.95752C22.2504 9.4491 22.1213 8.94839 21.873 8.50673C21.0985 7.12014 19.3781 6.64253 18.0376 7.44368C17.4095 7.81857 16.9553 8.43227 16.7517 9.13327C16.4588 8.79946 16.1435 8.48619 15.8108 8.1986C15.8605 8.09076 15.9126 7.98548 15.9697 7.88277C16.5059 6.92242 17.3698 6.23683 18.405 5.94924C19.4402 5.66165 20.5201 5.81057 21.446 6.36264C23.36 7.5053 24.0204 10.0474 22.9132 12.0271C21.8085 14.0043 19.3558 14.6874 17.4418 13.5473C16.7045 13.0799 16.4985 12.759 16.0938 12.1247C15.9424 11.8885 15.7711 11.6214 15.5452 11.303C14.1625 9.36694 11.9506 8.20887 9.62453 8.20887C7.6609 8.20887 5.81394 8.99974 4.42624 10.4351C3.03854 11.8705 2.27394 13.7809 2.27394 15.812C2.27394 20.0052 5.57314 23.4178 9.62701 23.4178C9.7412 23.4178 9.8554 23.4152 9.97207 23.4075C10.0416 23.8209 10.1384 24.2317 10.2576 24.6349C10.0465 24.6503 9.83802 24.6606 9.62701 24.6606C4.91032 24.6606 1.07243 20.6908 1.07243 15.812C1.07243 13.4471 1.96115 11.226 3.57724 9.55438C5.19084 7.89304 7.33817 6.97121 9.62453 6.97377ZM18.5713 8.40145C19.4005 7.90587 20.4655 8.20117 20.9446 9.0588C21.096 9.33099 21.1779 9.64169 21.1779 9.95495C21.1779 10.5969 20.8453 11.1926 20.3091 11.5136C19.4799 12.0092 18.4149 11.7139 17.9358 10.8562L17.9607 10.8408C17.9135 10.7587 17.8663 10.6765 17.8192 10.5943C17.7447 10.3915 17.705 10.1758 17.705 9.95752C17.7025 9.31815 18.0376 8.72242 18.5713 8.40145ZM14.0011 6.70929C15.7339 3.60743 19.5817 2.53924 22.583 4.33154C24.0353 5.19945 25.0754 6.60145 25.5098 8.27564C25.9443 9.95239 25.7208 11.7036 24.8818 13.2058C23.8888 14.9852 22.1163 16.1844 20.1403 16.4155C19.7878 16.4565 19.4923 16.4745 19.2342 16.4925C18.4547 16.5413 17.8887 16.5772 16.9155 17.1267L17.1762 17.6197L16.9056 17.1319C14.4802 18.5801 13.6461 21.8001 15.0462 24.3088C15.7239 25.5233 16.8212 26.3938 18.1319 26.7559C19.4427 27.1205 20.813 26.933 21.9872 26.232C23.6157 25.2589 24.5268 23.4897 24.5268 21.6717C24.5268 20.7807 24.3083 19.8794 23.8466 19.0526C23.8118 18.9884 23.7746 18.9242 23.7349 18.8625C24.0923 18.6777 24.4399 18.4697 24.7725 18.2411C24.8098 18.3053 24.8495 18.367 24.8867 18.4312C26.617 21.533 25.5868 25.5156 22.588 27.3079C21.1357 28.1758 19.4427 28.4069 17.8216 27.9576C16.2006 27.5082 14.8476 26.4323 14.0086 24.9302C13.0156 23.1507 12.8964 20.963 13.6933 19.0782C13.8348 18.7419 13.9664 18.4671 14.083 18.2283C14.4331 17.5042 14.6838 16.9804 14.7111 15.8351V15.8197C14.7111 12.9233 12.4322 10.5661 9.63197 10.5661C6.83175 10.5661 4.55285 12.9233 4.55285 15.8197C4.55285 18.7162 6.83175 21.0734 9.63197 21.0734C9.70397 21.0734 9.77596 21.0708 9.84795 21.0683C9.82312 21.4817 9.82312 21.8951 9.84795 22.3085C9.77596 22.3111 9.70397 22.3162 9.63197 22.3162C6.16893 22.3162 3.35133 19.4018 3.35133 15.8197C3.35133 14.0839 4.00422 12.4534 5.19084 11.226C6.37746 9.99861 7.95383 9.32329 9.63197 9.32329C11.6179 9.32329 13.5096 10.3119 14.6888 11.9655C14.8998 12.2608 15.0611 12.515 15.2051 12.741C15.6371 13.4163 15.9499 13.9042 16.8957 14.5025L17.1762 14.03L16.9081 14.5102C19.3335 15.9584 22.4465 15.0956 23.8466 12.5869C24.3083 11.7627 24.5268 10.8588 24.5268 9.96779C24.5268 8.14981 23.6157 6.38062 21.9872 5.40744C20.813 4.70644 19.4427 4.51899 18.1319 4.88361C16.8212 5.24567 15.7264 6.11614 15.0462 7.33069C15.0115 7.39489 14.9767 7.45909 14.942 7.52585C14.6093 7.29732 14.2618 7.08933 13.9018 6.90701C13.9316 6.84025 13.9639 6.77349 14.0011 6.70929ZM19.7753 18.8009C19.6661 18.7881 19.5544 18.7804 19.4402 18.7804C17.8911 18.7804 16.6325 20.0822 16.6325 21.6845C16.6325 23.2868 17.8911 24.5887 19.4402 24.5887C20.9893 24.5887 22.2479 23.2868 22.2479 21.6845C22.2479 20.9116 21.9549 20.2081 21.4758 19.6868C21.9028 19.5918 22.3199 19.466 22.727 19.3119C22.7915 19.4095 22.8536 19.5096 22.9107 19.6123C24.0154 21.5921 23.3575 24.1342 21.4436 25.2768C20.5151 25.8315 19.4352 25.9778 18.4001 25.6902C17.3649 25.4027 16.501 24.7171 15.9648 23.7593C14.8601 21.7821 15.5154 19.2451 17.4244 18.0999C18.1866 17.6711 18.5564 17.648 19.2913 17.6018C19.5643 17.5838 19.8722 17.5658 20.252 17.5196C22.5656 17.25 24.6385 15.8454 25.8028 13.763C26.4557 12.5921 26.7908 11.2902 26.7908 9.97293C26.7908 9.31301 26.7064 8.64796 26.5376 7.99318C26.0287 6.0314 24.8123 4.3906 23.1118 3.37633C19.6016 1.27847 15.0959 2.52897 13.0677 6.15979C13.0106 6.2625 12.956 6.36778 12.9039 6.47306C12.5216 6.32927 12.1318 6.20858 11.7321 6.11614C11.824 5.92099 11.9208 5.72841 12.0276 5.53839C13.1695 3.49188 15.014 2.02825 17.2209 1.41712C19.4278 0.805995 21.734 1.11926 23.7125 2.30044C25.6911 3.48161 27.1061 5.38946 27.6994 7.67221C28.2902 9.95495 27.9873 12.3404 26.8454 14.3869C25.3832 17.0086 22.6947 18.6777 19.7753 18.8009ZM19.4402 19.9153C19.5296 19.9153 19.6214 19.9128 19.7108 19.9102C20.5399 20.0463 21.1754 20.7884 21.1754 21.682C21.1754 22.6731 20.396 23.4794 19.4377 23.4794C18.4795 23.4794 17.7 22.6731 17.7 21.682C17.7 20.6908 18.4795 19.8845 19.4377 19.8845V19.9153H19.4402ZM12.0325 26.1062C10.5654 23.4794 10.5133 20.2363 11.8712 17.5581C11.9357 17.4682 11.9978 17.3707 12.0549 17.2705C12.3006 16.8289 12.4322 16.3282 12.4322 15.8197C12.4322 14.7849 11.8935 13.8194 11.0271 13.3033C9.68659 12.5022 7.96624 12.9798 7.19171 14.3664C6.94594 14.808 6.81437 15.3088 6.81437 15.8172C6.81437 16.852 7.35307 17.8175 8.21945 18.3336C8.86737 18.7213 9.60218 18.8086 10.2774 18.6391C10.1458 19.0705 10.0416 19.5071 9.96711 19.9487C9.85291 19.959 9.73872 19.9641 9.62453 19.9641C7.41513 19.9641 5.61534 18.1025 5.61534 15.8172C5.61534 13.5293 7.41513 11.6702 9.62453 11.6702C11.8339 11.6702 13.6312 13.5293 13.6337 15.812C13.6114 16.7056 13.445 17.0497 13.1174 17.7302C12.9957 17.9818 12.8567 18.2694 12.7053 18.6314C11.7743 20.8372 11.9134 23.3972 13.0752 25.4797C14.0557 27.2386 15.642 28.4968 17.5386 29.0232C19.4352 29.5496 21.4162 29.28 23.1167 28.2631C25.4726 26.856 26.7908 24.2934 26.7908 21.664C26.7908 20.375 26.473 19.068 25.8077 17.874C25.7506 17.7712 25.6886 17.6711 25.6265 17.571C25.9393 17.3013 26.2347 17.0112 26.5128 16.7005C26.6319 16.8802 26.7436 17.0651 26.8479 17.2526C29.2062 21.4791 27.8012 26.8997 23.7175 29.339C19.6338 31.7836 14.3909 30.3328 12.0325 26.1062ZM11.1041 16.7056C11.0594 16.7852 11.0172 16.8674 10.975 16.9496C10.4462 17.6249 9.50785 17.8252 8.75566 17.3784C8.21945 17.0574 7.8868 16.4617 7.8868 15.8197C7.8868 15.5065 7.96624 15.1958 8.12015 14.9236C8.59927 14.066 9.66425 13.7707 10.4934 14.2662C11.0296 14.5872 11.3623 15.1829 11.3623 15.8249C11.3623 16.1381 11.2828 16.4488 11.1289 16.721L11.1041 16.7056Z" fill="white"/>
</svg>
