<svg width="105" height="148" viewBox="0 0 105 148" fill="none" xmlns="http://www.w3.org/2000/svg">
<path d="M37.6643 123.776C37.6643 123.776 37.0569 123.579 36.2462 123.102C35.3003 122.546 33.9491 121.751 32.2594 120.596C30.6367 119.32 28.6086 117.805 26.5779 115.646C24.4803 113.609 22.3133 111.048 20.3457 107.801C18.3781 104.554 16.6112 100.943 15.7851 96.5998C15.0941 92.336 15.6823 87.6997 18.0927 83.6533C19.3654 81.6699 21.0436 79.925 23.3304 78.6989C25.4821 77.3932 28.1755 76.7278 30.9384 76.5854C36.5312 76.1793 42.3338 77.6644 48.005 80.0366C50.7731 81.183 53.6107 82.8524 56.2462 84.5636C58.8148 86.3962 61.4516 88.4297 63.4848 91.2331C64.0266 91.8732 64.5014 92.6347 64.7742 93.4381C65.1821 94.321 65.3198 95.0449 65.5926 95.8482C65.9362 97.4969 66.0777 99.1873 65.5449 100.802C65.1473 102.497 63.6699 103.878 61.9197 104.456C60.1696 105.033 58.4168 104.966 56.731 104.778C53.2912 104.201 50.0508 102.937 47.0112 101.31C43.9717 99.6822 41.0659 97.8119 38.3609 95.5776C35.589 93.4647 33.1517 90.745 31.1184 87.9416C29.0852 85.1383 27.254 82.293 25.8256 79.0419C24.3303 75.9121 23.306 72.5772 23.1581 69.2758C22.875 65.8949 23.5352 62.426 25.2095 59.7145C26.9507 56.8816 29.5039 54.848 32.3286 53.2954C33.0686 52.9272 33.8085 52.5589 34.4816 52.312C35.3567 52.0232 36.0966 51.655 36.9048 51.4876C37.713 51.3202 38.5211 51.1528 39.4644 51.0648C40.2726 50.8974 41.1489 50.9309 42.0253 50.9643C48.8329 50.9514 55.4462 52.9135 61.5228 55.5242C67.7345 58.2144 73.3427 61.6745 78.2135 66.1473C80.5813 68.344 82.6815 71.026 83.6376 74.16C84.2501 75.6454 84.3917 77.3359 84.0609 78.9092C83.8653 80.562 82.9271 81.9387 81.7174 82.8342C81.2477 83.3615 80.3726 83.6502 79.8347 83.9766C79.1617 84.2235 78.3535 84.3909 77.6123 84.437C76.871 84.4831 76.1298 84.5291 75.4555 84.4538C74.7142 84.4999 73.7696 84.2656 73.1622 84.069C70.2603 83.1654 67.9633 81.8139 65.6662 80.4625C61.139 77.6383 57.2179 74.6886 53.6327 71.4543C50.1826 68.2995 47.0015 64.9815 44.5616 61.6174C41.9866 58.1739 40.1528 54.6842 38.9934 51.2699C37.9009 47.7342 37.6847 44.2319 38.6165 41.2443C39.5482 38.2566 41.2238 35.8673 43.3742 34.2395C45.5246 32.6117 47.8127 31.7078 49.9669 31.0465C51.0441 30.7159 52.1894 30.5861 53.1996 30.3769C54.2098 30.1676 55.1531 30.0797 56.2315 30.0713C58.1181 29.8954 59.9377 29.8409 61.4884 29.9497C64.6567 30.0457 67.2189 30.2674 69.1749 30.6146C73.0871 31.309 74.639 31.7399 74.7072 31.9407C74.7754 32.1416 73.4268 31.991 69.9882 31.7359C68.3024 31.5477 66.0105 31.4851 63.1794 31.4266C60.3482 31.3682 56.844 31.5567 52.9383 32.4732C50.9179 32.8918 48.8988 33.6325 46.9478 34.5741C44.93 35.637 43.1837 37.1811 41.9791 39.3654C40.7746 41.5496 40.1787 44.2527 40.4605 47.3114C40.9443 50.3283 42.1707 53.6213 44.1383 56.8682C48.0735 63.3621 54.5026 69.8768 62.6138 75.6131C64.6419 77.1277 66.8038 78.3996 69.1009 79.751C70.1819 80.387 71.4649 80.9811 72.5446 81.2949C73.152 81.4915 73.7594 81.6881 74.2317 81.8053C74.7039 81.9224 75.4452 81.8763 75.9175 81.9935C77.0628 81.8637 78.2081 81.7339 79.015 81.2443C79.8888 80.6334 80.6275 79.9429 80.8257 78.9345C81.159 78.0055 81.1539 76.7168 80.7447 75.5117C80.5401 74.9092 80.3355 74.3066 80.1309 73.7041C79.9275 73.4238 79.9262 73.1016 79.7229 72.8213L79.1129 71.9802C77.5533 69.6162 75.3206 67.499 72.752 65.6664C70.2503 63.7125 67.6148 62.0012 64.7103 60.4532C59.0365 57.4365 52.826 55.0685 46.5538 54.1107C43.3842 53.6924 40.2159 53.5963 37.3204 54.3036C36.5122 54.471 35.9743 54.7974 35.1661 54.9648C34.4931 55.2118 33.7532 55.58 33.2152 55.9064C31.9374 56.6011 30.5925 57.4171 29.6531 58.4716C27.504 60.4216 25.9636 62.8904 25.4359 65.7943C24.9082 68.6983 25.3251 71.8365 26.213 74.7696C27.2361 77.7823 28.5963 80.8326 30.2923 83.5983C31.9884 86.3641 34.0886 89.0461 36.3225 91.4855C36.8643 92.1257 37.473 92.6445 38.0817 93.1633C38.6904 93.6821 39.4342 94.2805 40.0429 94.7993C41.3954 95.9164 42.6797 96.8327 44.166 97.7072C46.9366 99.4979 49.9762 101.125 53.0133 102.109C54.5652 102.54 56.1172 102.97 57.5328 103C58.9483 103.029 60.4308 102.937 61.3716 102.204C61.9095 101.878 62.3123 101.472 62.58 100.987C62.8477 100.501 63.0471 99.8151 63.0446 99.1707C63.2415 97.8401 62.831 96.3129 62.4887 94.9864C61.602 92.3755 59.3011 90.0575 56.9346 88.183C54.568 86.3086 51.9325 84.5973 49.2983 83.2083C43.9629 80.5515 38.226 78.6228 32.9009 78.5436C30.2718 78.4433 27.7122 78.866 25.4241 79.77C23.136 80.6739 21.3215 82.0171 19.9805 83.7997C18.5045 85.5028 17.704 87.6034 17.1056 89.6621C16.9074 90.6705 16.6423 91.8003 16.6461 92.7669C16.5805 93.2104 16.583 93.8548 16.5174 94.2983C16.5869 94.8214 16.6564 95.3444 16.7258 95.8674C17.1466 99.9722 18.6445 103.746 20.5451 107.115C24.2783 113.65 28.9458 117.843 32.1243 120.516C35.7044 122.462 37.7312 123.654 37.6643 123.776Z" fill="#7953B5"/>
<path d="M48.7323 10.356C48.7966 10.2387 50.2221 10.7706 52.3617 11.8799C54.631 13.0659 57.7427 14.5945 61.3091 16.5471C62.9953 17.5438 65.0051 18.5764 66.9507 19.7264C68.8963 20.8764 70.842 22.0264 72.853 23.3704C73.8907 23.9837 74.8641 24.7144 75.7078 25.3685C76.6812 26.0991 77.5249 26.7532 78.5626 27.3665C79.6014 28.2912 80.7046 29.0986 81.7434 30.0233C82.198 30.4473 82.5871 30.6773 83.0417 31.1013L83.626 31.602L83.9509 31.9494C84.0806 32.026 84.2103 32.1027 84.0163 32.1434C83.112 32.5409 82.2077 32.9383 81.3677 33.2184C80.2694 33.6566 79.3651 34.0541 78.3311 34.3749C77.4911 34.655 76.7807 35.0118 76.0704 35.3686C74.7139 35.9648 73.3575 36.561 72.2592 36.9992C71.0967 37.5547 70.1282 38.0696 69.2239 38.4671C68.7717 38.6658 68.3196 38.8646 68.0614 39.0226C67.7389 39.298 67.351 39.3794 67.0928 39.5374C64.6393 40.8832 63.4756 41.1274 63.2804 40.8567C63.0853 40.586 63.4708 39.8818 65.5994 38.1887C66.6309 37.2451 68.3099 36.3735 70.3754 35.1091C72.5707 33.9214 75.4776 32.6883 79.0305 31.2157L79.2887 31.0576C79.2887 31.0576 79.2887 31.0576 79.159 30.981C78.7044 30.557 78.3796 30.2096 77.8607 29.903C77.0813 29.1316 76.0436 28.5182 75.1999 27.8642C74.2265 27.1335 73.3828 26.4795 72.4094 25.7488C68.5812 23.0201 64.6245 20.5261 61.1224 18.4561C57.6846 16.2688 54.4419 14.3521 52.3011 12.9314C49.9664 11.5514 48.6681 10.4734 48.7323 10.356Z" fill="#7953B5"/>
</svg>
