<svg width="21" height="20" viewBox="0 0 21 20" fill="none" xmlns="http://www.w3.org/2000/svg">
<path d="M16.6667 18.833C16.8334 19.4997 16.3334 19.6663 15.8334 19.4997L11.3334 17.1663C10.8334 16.833 9.83337 16.833 9.33337 17.1663L4.83336 19.333C4.33336 19.6663 3.83336 19.333 4.00003 18.6663L4.83336 13.6663C5.00003 12.9997 4.6667 12.1663 4.1667 11.833L0.666698 8.16634C0.166698 7.66634 0.333366 7.33301 1.00003 7.16634L6.00003 6.33301C6.6667 6.16634 7.33337 5.66634 7.6667 5.16634L9.83336 0.833008C10.1667 0.333008 10.5 0.333008 10.8334 0.833008L13.1667 5.33301C13.5 5.83301 14.1667 6.33301 14.8334 6.49967L19.8334 7.33301C20.5 7.49967 20.5 7.83301 20.1667 8.33301L16.6667 11.9997C16.1667 12.4997 16 13.333 16 13.833L16.6667 18.833Z" fill="url(#paint0_radial_672_1767)"/>
<defs>
<radialGradient id="paint0_radial_672_1767" cx="0" cy="0" r="1" gradientUnits="userSpaceOnUse" gradientTransform="translate(3.6667 19.8868) scale(21.0325 21.0325)">
<stop offset="0.3548" stop-color="#FFC200"/>
<stop offset="0.5084" stop-color="#FFBD07"/>
<stop offset="0.7249" stop-color="#FFAF19"/>
<stop offset="0.9777" stop-color="#FF9737"/>
<stop offset="1" stop-color="#FF953A"/>
</radialGradient>
</defs>
</svg>
