<svg width="21" height="20" viewBox="0 0 21 20" fill="none" xmlns="http://www.w3.org/2000/svg">
<path opacity="0.65" d="M16.8327 18.833C16.9994 19.4997 16.4994 19.6663 15.9994 19.4997L11.4994 17.1663C10.9994 16.833 9.99939 16.833 9.49939 17.1663L4.99938 19.333C4.49938 19.6663 3.99938 19.333 4.16605 18.6663L4.99938 13.6663C5.16605 12.9997 4.83272 12.1663 4.33272 11.833L0.832712 8.16634C0.332712 7.66634 0.499386 7.33301 1.16605 7.16634L6.16605 6.33301C6.83272 6.16634 7.49939 5.66634 7.83272 5.16634L9.99938 0.833008C10.3327 0.333008 10.6661 0.333008 10.9994 0.833008L13.3327 5.33301C13.666 5.83301 14.3327 6.33301 14.9994 6.49967L19.9994 7.33301C20.6661 7.49967 20.6661 7.83301 20.3327 8.33301L16.8327 11.9997C16.3327 12.4997 16.1661 13.333 16.1661 13.833L16.8327 18.833Z" fill="url(#paint0_radial_672_1770)"/>
<defs>
<radialGradient id="paint0_radial_672_1770" cx="0" cy="0" r="1" gradientUnits="userSpaceOnUse" gradientTransform="translate(3.94172 19.8868) scale(21.0327 21.0327)">
<stop offset="0.3548" stop-color="#DBDBDB"/>
<stop offset="0.5494" stop-color="#D4D4D4"/>
<stop offset="0.823" stop-color="#C2C2C2"/>
<stop offset="0.9946" stop-color="#B3B3B3"/>
</radialGradient>
</defs>
</svg>
