<svg width="47" height="46" viewBox="0 0 47 46" fill="none" xmlns="http://www.w3.org/2000/svg">
<path d="M22.5316 1.76006C22.7894 0.759272 24.2106 0.759272 24.4684 1.76006L27.597 13.9076C27.7512 14.5066 28.4068 14.8233 28.9718 14.5719L40.5868 9.40486C41.5365 8.98238 42.4204 10.1095 41.7837 10.9311L34.1137 20.8283C33.7278 21.3263 33.893 22.0529 34.4564 22.335L45.7356 27.9829C46.668 28.4498 46.353 29.8532 45.3106 29.8768L32.6148 30.1647C31.99 30.1789 31.5311 30.7562 31.6584 31.3681L34.2015 43.596C34.4123 44.6097 33.1328 45.2363 32.4613 44.4482L24.2612 34.8244C23.8619 34.3558 23.1381 34.3558 22.7388 34.8244L14.5387 44.4482C13.8672 45.2363 12.5877 44.6097 12.7985 43.596L15.3416 31.3681C15.4689 30.7562 15.01 30.1789 14.3852 30.1647L1.68943 29.8768C0.647032 29.8532 0.332042 28.4498 1.26436 27.9829L12.5436 22.335C13.107 22.0529 13.2722 21.3263 12.8863 20.8283L5.21628 10.9311C4.57957 10.1095 5.46346 8.98238 6.41316 9.40486L18.0282 14.5719C18.5932 14.8233 19.2488 14.5066 19.403 13.9076L22.5316 1.76006Z" stroke="#FDDC6A"/>
</svg>
