<svg width="27" height="24" viewBox="0 0 27 24" fill="none" xmlns="http://www.w3.org/2000/svg">
<path fill-rule="evenodd" clip-rule="evenodd" d="M26.0141 9.56124L26.0176 14.3917C25.9836 14.8519 25.9397 15.3116 25.8861 15.7704C25.7963 16.5376 25.1727 17.1564 24.3895 17.244C21.9365 17.5181 19.3981 17.5181 16.945 17.244C16.1618 17.1564 15.5382 16.5376 15.4484 15.7704C15.1554 13.265 15.1554 10.734 15.4484 8.2287C15.5382 7.46149 16.1618 6.84263 16.945 6.7551C19.3981 6.48094 21.9365 6.48094 24.3895 6.7551C25.1727 6.84263 25.7963 7.46149 25.8861 8.2287C25.938 8.67217 25.9806 9.11645 26.0141 9.56124ZM20.6673 9.99953C19.5627 9.99953 18.6673 10.895 18.6673 11.9995C18.6673 13.1041 19.5627 13.9995 20.6673 13.9995C21.7718 13.9995 22.6673 13.1041 22.6673 11.9995C22.6673 10.895 21.7718 9.99953 20.6673 9.99953Z" fill="#7953B5"/>
<path d="M25.2054 4.05248C25.4127 4.4115 25.0236 4.81352 24.6116 4.76747C22.011 4.47681 19.3235 4.47681 16.7229 4.76747C15.0304 4.95663 13.6616 6.28935 13.462 7.99637C13.1509 10.6561 13.1509 13.343 13.462 16.0027C13.6616 17.7097 15.0304 19.0424 16.7229 19.2316C19.3235 19.5222 22.011 19.5222 24.6116 19.2316C25.0264 19.1852 25.4186 19.59 25.2093 19.9511C24.1712 21.7415 22.3204 22.9911 20.1697 23.2174L19.3005 23.3089C14.8861 23.7734 10.4335 23.7428 6.0258 23.2175L5.44988 23.1489C3.07372 22.8658 1.19098 21.0093 0.874488 18.6373C0.286629 14.2317 0.286629 9.76741 0.874488 5.36173C1.19098 2.98977 3.07372 1.1333 5.44988 0.850148L6.0258 0.78152C10.4335 0.256285 14.8861 0.225652 19.3005 0.690191L20.1697 0.781652C22.3222 1.00816 24.1701 2.25964 25.2054 4.05248Z" fill="#7953B5"/>
</svg>
