<svg width="220"
  height="168"
  viewBox="0 0 220 168"
  fill="none"
  xmlns="http://www.w3.org/2000/svg">
  <path
    d="M247.442 168.001C247.048 168.001 244.682 161.691 240.344 151.437C237.978 146.31 235.217 140.001 231.668 133.691C228.118 126.986 223.386 119.888 217.865 112.789C206.823 98.5921 191.442 84.7893 173.696 74.5358L166.992 70.5921C164.626 69.409 162.259 68.2259 159.893 67.4372C157.527 66.2541 155.161 65.4654 152.795 64.2823C150.428 63.0992 148.062 61.9161 145.696 61.1273C140.964 59.5499 136.231 57.9724 131.499 56.3949C126.766 55.2118 122.034 54.0287 117.302 52.8456C98.7664 48.902 83.3862 47.7189 70.7664 46.9302C58.1467 46.1414 48.682 46.5358 41.189 46.1414C26.5975 46.1414 21.4707 45.3527 21.4707 44.1696C21.4707 42.9865 25.4144 42.1978 39.2172 41.0147C42.7665 40.6203 46.7101 40.6203 51.4425 40.226C56.1749 39.8316 61.6961 39.8316 67.6115 40.226C70.7665 40.226 73.9214 40.226 77.4707 40.226C81.02 40.226 84.5693 40.6203 88.5129 41.0147C96.4002 41.409 105.076 42.9865 114.541 44.564C119.273 45.7471 124.006 46.9302 129.133 48.1133C131.499 48.5076 134.259 49.2964 136.626 50.4795C138.992 51.2682 141.752 52.0569 144.119 53.24C146.485 54.0287 149.245 54.8175 151.612 56.0006C153.978 57.1837 156.344 58.3668 159.104 59.5499C163.837 61.9161 168.964 64.2823 173.696 67.0428C178.428 69.8034 182.766 72.9583 187.499 75.7189C191.837 78.8738 196.175 82.0287 200.118 85.9724C208.006 93.071 214.71 100.564 220.626 108.451C232.062 123.832 238.766 139.212 242.71 150.254C246.654 160.902 247.837 168.001 247.442 168.001Z" />
  <path
    d="M100.344 1.18311C100.344 1.97184 96.4006 1.97184 89.6964 3.5493C82.9921 5.12676 73.9217 8.2817 64.0626 13.0141C53.8091 17.7465 42.7668 23.662 32.1189 30.3662C26.5978 33.9155 21.4711 37.4648 16.3443 41.0141C15.1612 41.8028 13.9781 42.9859 12.795 43.7747L12.4006 44.169C12.4006 44.5634 11.2175 43.3803 14.7668 46.1408C24.626 52.8451 32.1189 59.1549 38.0344 64.2817C43.9499 69.8028 48.2879 73.7465 51.0485 77.2958C56.964 84 58.5415 87.1549 57.7527 87.5492C56.964 88.338 54.5978 87.1549 48.2879 81.6338C41.9781 76.1126 31.3302 67.0422 12.4006 53.2394C9.24572 50.8732 5.6964 48.507 2.1471 45.7465L0.175274 44.5634C-0.219092 44.5634 0.175274 44.169 0.175274 44.169L0.569664 43.7747L1.35838 42.9859L4.90768 40.2253L6.48515 38.6479L8.06259 37.4648L10.0344 35.8873C15.1612 31.9437 20.6823 28.3944 26.5978 24.8451C38.0344 18.1408 49.8654 12.2253 60.5133 7.88732C71.5555 3.54929 81.4147 0.788732 88.5133 0C96.0062 0 100.344 0.788744 100.344 1.18311Z" />
</svg>