<svg width="32" height="32" viewBox="0 0 32 32" fill="none" xmlns="http://www.w3.org/2000/svg">
<path d="M27.2008 15.9998L26.1008 17.0998L27.0008 18.2998L25.6008 19.0998L26.3008 20.5998L24.8008 21.0998L25.1008 22.5998L23.5008 22.7998V24.2998L21.9008 24.1998L21.6008 25.6998L20.1008 25.1998L19.5008 26.6998L18.1008 25.8998L17.2008 27.1998L16.0008 26.0998L14.8008 27.1998L13.9008 25.8998L12.5008 26.6998L11.9008 25.1998L10.4008 25.6998L10.1008 24.1998L8.50078 24.2998V22.7998L6.90078 22.5998L7.20078 21.0998L5.70078 20.5998L6.40078 19.0998L5.00078 18.2998L5.90078 17.0998L4.80078 15.9998L5.90078 14.8998L5.00078 13.6998L6.40078 12.8998L5.70078 11.3998L7.20078 10.8998L6.90078 9.3998L8.50078 9.1998V7.6998L10.1008 7.7998L10.4008 6.2998L11.9008 6.7998L12.5008 5.2998L13.9008 6.0998L14.8008 4.7998L16.0008 5.8998L17.2008 4.7998L18.1008 6.0998L19.5008 5.2998L20.1008 6.7998L21.6008 6.2998L21.9008 7.7998L23.5008 7.6998V9.1998L25.1008 9.3998L24.8008 10.8998L26.3008 11.3998L25.6008 12.8998L27.0008 13.6998L26.1008 14.8998L27.2008 15.9998Z" fill="url(#paint0_linear_2878_5994)"/>
<path d="M19.7008 11.8999L14.4008 17.1999L12.3008 15.0999L10.8008 16.5999L14.4008 20.0999L21.2008 13.2999L19.7008 11.8999Z" fill="white"/>
<defs>
<linearGradient id="paint0_linear_2878_5994" x1="18.9294" y1="10.5088" x2="1.16698" y2="43.8132" gradientUnits="userSpaceOnUse">
<stop stop-color="#00C72E"/>
<stop offset="1" stop-color="#048649"/>
</linearGradient>
</defs>
</svg>
