<svg width="402" height="438" viewBox="0 0 402 438" fill="none" xmlns="http://www.w3.org/2000/svg">
<path d="M335.401 419.076C378.038 393.616 401.931 347.241 401.931 299.623C401.931 276.293 396.198 252.644 384.114 231.019C381.745 226.794 379.171 222.71 376.39 218.769C379.136 214.862 381.745 210.779 384.114 206.553C395.958 185.354 402 161.812 402 137.949C402 125.983 400.489 113.945 397.4 102.085C388.199 66.5759 366.16 36.8902 335.366 18.4964C304.573 0.1026 268.698 -4.76215 234.368 4.75433C200.039 14.2708 171.339 37.0677 153.556 68.884C151.188 73.1096 149.059 77.4772 147.171 81.9159C142.502 81.3833 137.799 81.1347 133.096 81.1347C97.5305 81.1347 64.1278 95.4449 38.9985 121.438C13.8692 147.43 0 182.016 0 218.804C0 294.723 59.6992 356.473 133.096 356.473C137.799 356.473 142.537 356.189 147.205 355.692C149.094 360.131 151.222 364.463 153.591 368.724C190.255 434.416 271.822 457.036 335.401 419.076ZM133.096 96.4392C173.674 96.4392 211.574 118.206 233.167 153.538C233.785 154.994 234.437 156.414 235.227 157.799C245.938 176.974 269.728 183.579 288.266 172.5C300.247 165.327 307.697 152.011 307.697 137.701C307.697 130.67 305.911 123.746 302.478 117.638C291.768 98.4632 267.977 91.8585 249.439 102.937C240.754 108.122 234.471 116.608 231.656 126.302C227.605 121.686 223.246 117.354 218.645 113.377C219.332 111.886 220.053 110.43 220.843 109.009C228.258 95.729 240.204 86.248 254.52 82.271C268.835 78.294 283.769 80.3535 296.574 87.988C323.042 103.79 332.174 138.944 316.863 166.321C301.586 193.664 267.668 203.109 241.2 187.343C231.004 180.88 228.155 176.441 222.559 167.671C220.465 164.404 218.096 160.711 214.972 156.308C195.851 129.534 165.263 113.519 133.096 113.519C105.941 113.519 80.4 124.456 61.2097 144.306C42.0195 164.155 31.4459 190.574 31.4459 218.662C31.4459 276.649 77.07 323.84 133.13 323.84C134.709 323.84 136.289 323.805 137.902 323.698C138.863 329.415 140.202 335.097 141.85 340.672C138.932 340.885 136.048 341.027 133.13 341.027C67.904 341.027 14.8304 286.13 14.8304 218.662C14.8304 185.958 27.1204 155.242 49.469 132.126C71.7833 109.151 101.478 96.4037 133.096 96.4392ZM256.82 116.182C268.286 109.329 283.013 113.413 289.639 125.273C291.733 129.037 292.866 133.333 292.866 137.665C292.866 146.543 288.266 154.781 280.851 159.22C269.385 166.073 254.657 161.989 248.032 150.129L248.375 149.916C247.723 148.78 247.07 147.644 246.418 146.507C245.388 143.702 244.839 140.719 244.839 137.701C244.805 128.859 249.439 120.621 256.82 116.182ZM193.619 92.7817C217.581 49.8866 270.792 35.1147 312.297 59.9002C332.379 71.9023 346.764 91.2904 352.771 114.442C358.779 137.63 355.689 161.847 344.086 182.62C330.354 207.228 305.843 223.811 278.516 227.007C273.642 227.575 269.556 227.823 265.986 228.072C255.206 228.747 247.379 229.244 233.922 236.843L237.527 243.66L233.785 236.914C200.245 256.941 188.71 301.47 208.072 336.162C217.444 352.958 232.618 364.996 250.744 370.002C268.87 375.045 287.82 372.453 304.058 362.759C326.578 349.301 339.177 324.835 339.177 299.694C339.177 287.372 336.156 274.909 329.77 263.475C329.29 262.587 328.775 261.699 328.226 260.847C333.169 258.29 337.975 255.414 342.575 252.254C343.09 253.141 343.64 253.994 344.155 254.881C368.082 297.777 353.836 352.851 312.365 377.637C292.283 389.639 268.87 392.835 246.452 386.621C224.035 380.407 205.326 365.528 193.722 344.755C179.99 320.147 178.342 289.894 189.362 263.83C191.319 259.178 193.139 255.379 194.752 252.076C199.592 242.063 203.06 234.819 203.437 218.982V218.769C203.437 178.714 171.923 146.117 133.199 146.117C94.4751 146.117 62.9605 178.714 62.9605 218.769C62.9605 258.823 94.4751 291.42 133.199 291.42C134.195 291.42 135.19 291.385 136.186 291.349C135.842 297.066 135.842 302.783 136.186 308.5C135.19 308.536 134.195 308.607 133.199 308.607C85.3091 308.607 46.345 268.304 46.345 218.769C46.345 194.764 55.3737 172.216 71.7833 155.242C88.1928 138.269 109.992 128.93 133.199 128.93C160.663 128.93 186.822 142.601 203.128 165.469C206.046 169.553 208.278 173.068 210.269 176.193C216.242 185.532 220.568 192.279 233.647 200.552L237.527 194.019L233.819 200.659C267.359 220.686 310.409 208.755 329.77 174.062C336.156 162.664 339.177 150.165 339.177 137.843C339.177 112.702 326.578 88.2366 304.058 74.7786C287.82 65.0845 268.87 62.4923 250.744 67.5346C232.618 72.5415 217.478 84.5791 208.072 101.375C207.591 102.263 207.111 103.15 206.63 104.074C202.03 100.913 197.224 98.0371 192.246 95.5159C192.658 94.5927 193.104 93.6694 193.619 92.7817ZM273.47 259.995C271.959 259.817 270.415 259.711 268.835 259.711C247.414 259.711 230.009 277.714 230.009 299.872C230.009 322.029 247.414 340.033 268.835 340.033C290.257 340.033 307.662 322.029 307.662 299.872C307.662 289.183 303.611 279.454 296.986 272.245C302.89 270.932 308.658 269.192 314.288 267.061C315.18 268.41 316.039 269.795 316.828 271.216C332.105 298.593 323.008 333.747 296.539 349.549C283.7 357.219 268.767 359.243 254.451 355.266C240.136 351.289 228.189 341.808 220.774 328.563C205.497 301.221 214.56 266.138 240.96 250.301C251.499 244.371 256.614 244.051 266.776 243.412C270.552 243.163 274.809 242.915 280.061 242.276C312.056 238.547 340.722 219.124 356.822 190.326C365.851 174.133 370.485 156.13 370.485 137.914C370.485 128.788 369.318 119.591 366.984 110.536C359.946 83.4073 343.125 60.7169 319.609 46.6907C271.067 17.6797 208.758 34.9727 180.711 85.1827C179.922 86.6031 179.166 88.059 178.445 89.5149C173.159 87.5264 167.769 85.8574 162.242 84.5791C163.512 81.8804 164.851 79.2172 166.327 76.5895C182.119 48.2886 207.626 28.0484 238.145 19.5972C268.664 11.146 300.556 15.4781 327.917 31.8124C355.277 48.1466 374.845 74.53 383.05 106.098C391.22 137.665 387.032 170.653 371.241 198.954C351.02 235.209 313.841 258.29 273.47 259.995ZM268.835 275.406C270.071 275.406 271.341 275.37 272.577 275.335C284.043 277.217 292.832 287.479 292.832 299.836C292.832 313.543 282.052 324.693 268.801 324.693C255.55 324.693 244.77 313.543 244.77 299.836C244.77 286.13 255.55 274.98 268.801 274.98V275.406H268.835ZM166.396 361.019C146.107 324.693 145.386 279.844 164.164 242.808C165.057 241.565 165.915 240.216 166.705 238.831C170.103 232.724 171.923 225.799 171.923 218.769C171.923 204.458 164.473 191.107 152.492 183.969C133.954 172.891 110.164 179.495 99.4529 198.67C96.0543 204.778 94.2348 211.702 94.2348 218.733C94.2348 233.043 101.684 246.395 113.665 253.532C122.625 258.894 132.787 260.101 142.125 257.758C140.305 263.723 138.863 269.76 137.833 275.867C136.254 276.009 134.675 276.08 133.096 276.08C102.543 276.08 77.6536 250.336 77.6536 218.733C77.6536 187.094 102.543 161.386 133.096 161.386C163.649 161.386 188.504 187.094 188.538 218.662C188.229 231.019 185.929 235.777 181.398 245.187C179.716 248.667 177.793 252.644 175.699 257.651C162.825 288.154 164.748 323.556 180.814 352.354C194.374 376.678 216.311 394.078 242.539 401.357C268.767 408.636 296.162 404.908 319.678 390.846C352.256 371.387 370.485 335.949 370.485 299.588C370.485 281.762 366.091 263.688 356.891 247.176C356.101 245.756 355.243 244.371 354.385 242.986C358.71 239.257 362.796 235.245 366.64 230.948C368.288 233.434 369.833 235.99 371.275 238.583C403.888 297.031 384.458 371.991 327.985 405.725C271.513 439.53 199.009 419.467 166.396 361.019ZM153.556 231.019C152.939 232.12 152.355 233.256 151.771 234.393C144.459 243.732 131.482 246.501 121.081 240.323C113.665 235.884 109.065 227.646 109.065 218.769C109.065 214.436 110.164 210.14 112.292 206.376C118.918 194.516 133.645 190.432 145.111 197.285C152.527 201.724 157.127 209.962 157.127 218.84C157.127 223.172 156.028 227.468 153.9 231.232L153.556 231.019Z" fill="#7953B5"/>
</svg>
