<svg width="16" height="17" viewBox="0 0 16 17" fill="none" xmlns="http://www.w3.org/2000/svg">
<path d="M13.5999 8.82998L13.0499 9.37998L13.4999 9.97998L12.7999 10.38L13.1499 11.13L12.3999 11.38L12.5499 12.13L11.7499 12.23V12.98L10.9499 12.93L10.7999 13.68L10.0499 13.43L9.7499 14.18L9.0499 13.78L8.5999 14.43L7.9999 13.88L7.3999 14.43L6.9499 13.78L6.2499 14.18L5.9499 13.43L5.1999 13.68L5.0499 12.93L4.2499 12.98V12.23L3.4499 12.13L3.5999 11.38L2.8499 11.13L3.1999 10.38L2.4999 9.97998L2.9499 9.37998L2.3999 8.82998L2.9499 8.27998L2.4999 7.67998L3.1999 7.27998L2.8499 6.52998L3.5999 6.27998L3.4499 5.52998L4.2499 5.42998V4.67998L5.0499 4.72998L5.1999 3.97998L5.9499 4.22998L6.2499 3.47998L6.9499 3.87998L7.3999 3.22998L7.9999 3.77998L8.5999 3.22998L9.0499 3.87998L9.7499 3.47998L10.0499 4.22998L10.7999 3.97998L10.9499 4.72998L11.7499 4.67998V5.42998L12.5499 5.52998L12.3999 6.27998L13.1499 6.52998L12.7999 7.27998L13.4999 7.67998L13.0499 8.27998L13.5999 8.82998Z" fill="url(#paint0_linear_2955_6181)"/>
<path d="M9.8499 6.77979L7.1999 9.42979L6.1499 8.37979L5.3999 9.12979L7.1999 10.8798L10.5999 7.47979L9.8499 6.77979Z" fill="white"/>
<defs>
<linearGradient id="paint0_linear_2955_6181" x1="9.4642" y1="6.08448" x2="0.583002" y2="22.7367" gradientUnits="userSpaceOnUse">
<stop stop-color="#00C72E"/>
<stop offset="1" stop-color="#048649"/>
</linearGradient>
</defs>
</svg>
