<svg width="18" height="19" viewBox="0 0 18 19" fill="none" xmlns="http://www.w3.org/2000/svg">
<path d="M3.54567 5.16583C3.33045 5.10905 3.15157 4.9596 3.05741 4.75792C2.96325 4.55623 2.96354 4.32314 3.0582 4.12168L4.71895 0.587294C4.84271 0.323909 5.10766 0.155891 5.39867 0.156251C5.68969 0.156611 5.95422 0.325284 6.07733 0.588975L6.80996 2.15821C6.83615 2.14792 6.8632 2.13899 6.89103 2.13153C11.2384 0.966663 15.7069 3.54657 16.8718 7.89392C18.0366 12.2413 15.4567 16.7098 11.1094 17.8747C6.76204 19.0395 2.2935 16.4596 1.12864 12.1123C0.758214 10.7298 0.766547 9.33296 1.09098 8.03423C1.19137 7.63236 1.59853 7.38797 2.00039 7.48836C2.40225 7.58874 2.64665 7.9959 2.54626 8.39777C2.28197 9.45576 2.27468 10.5938 2.57753 11.7241C3.52798 15.2712 7.17401 17.3762 10.7212 16.4258C14.2683 15.4753 16.3733 11.8293 15.4229 8.28215C14.488 4.793 10.9449 2.69919 7.45332 3.53624L8.19251 5.11954C8.31562 5.38323 8.27507 5.69434 8.08849 5.91767C7.90192 6.141 7.60299 6.23624 7.3216 6.162L3.54567 5.16583Z" fill="#7953B5"/>
</svg>
