<svg width="29" height="25" viewBox="0 0 29 25" fill="none" xmlns="http://www.w3.org/2000/svg">
<path fill-rule="evenodd" clip-rule="evenodd" d="M5.41688 6.49826C5.41688 3.10785 8.16536 0.359375 11.5558 0.359375C14.9462 0.359375 17.6947 3.10785 17.6947 6.49826C17.6947 9.88868 14.9462 12.6372 11.5558 12.6372C8.16536 12.6372 5.41688 9.88868 5.41688 6.49826ZM11.5558 2.52604C9.36198 2.52604 7.58355 4.30447 7.58355 6.49826C7.58355 8.69206 9.36198 10.4705 11.5558 10.4705C13.7496 10.4705 15.528 8.69206 15.528 6.49826C15.528 4.30447 13.7496 2.52604 11.5558 2.52604Z" fill="#03B76F"/>
<path fill-rule="evenodd" clip-rule="evenodd" d="M0.361328 20.2205C0.361328 17.2289 2.78645 14.8038 5.778 14.8038H6.27036C6.53685 14.8038 6.80166 14.846 7.05499 14.9287L8.30518 15.3369C10.4174 16.0266 12.6942 16.0266 14.8064 15.3369L16.0566 14.9287C16.3099 14.846 16.5747 14.8038 16.8412 14.8038H17.3336C20.3251 14.8038 22.7502 17.2289 22.7502 20.2205V21.9369C22.7502 23.0249 21.9617 23.9526 20.8879 24.1279C14.7074 25.1369 8.40414 25.1369 2.22361 24.1279C1.14983 23.9526 0.361328 23.0249 0.361328 21.9369V20.2205ZM5.778 16.9705C3.98307 16.9705 2.528 18.4256 2.528 20.2205V21.9369C2.528 21.963 2.54694 21.9853 2.57273 21.9895C8.52204 22.9608 14.5895 22.9608 20.5388 21.9895C20.5646 21.9853 20.5836 21.963 20.5836 21.9369V20.2205C20.5836 18.4256 19.1285 16.9705 17.3336 16.9705H16.8412C16.8031 16.9705 16.7653 16.9765 16.7291 16.9883L15.4789 17.3965C12.9297 18.2289 10.1818 18.2289 7.63264 17.3965L6.38245 16.9883C6.34626 16.9765 6.30843 16.9705 6.27036 16.9705H5.778Z" fill="#03B76F"/>
<path d="M23.8336 4.69271C24.4319 4.69271 24.9169 5.17773 24.9169 5.77604V8.30382H27.4447C28.043 8.30382 28.528 8.78885 28.528 9.38715C28.528 9.98546 28.043 10.4705 27.4447 10.4705H24.9169V12.9983C24.9169 13.5966 24.4319 14.0816 23.8336 14.0816C23.2352 14.0816 22.7502 13.5966 22.7502 12.9983V10.4705H20.2224C19.6241 10.4705 19.1391 9.98546 19.1391 9.38715C19.1391 8.78884 19.6241 8.30382 20.2224 8.30382H22.7502V5.77604C22.7502 5.17773 23.2352 4.69271 23.8336 4.69271Z" fill="#03B76F"/>
</svg>
