<svg viewBox="0 0 85 92" fill="none" xmlns="http://www.w3.org/2000/svg">
<path d="M70.5102 87.622C79.4037 82.3177 84.3875 72.656 84.3875 62.7354C84.3875 57.875 83.1917 52.948 80.6711 48.4426C80.177 47.5623 79.64 46.7115 79.06 45.8903C79.6328 45.0766 80.177 44.2258 80.6711 43.3455C83.1415 38.9289 84.4018 34.0241 84.4018 29.0527C84.4018 26.5596 84.0867 24.0517 83.4423 21.5808C81.5232 14.1828 76.9261 7.99819 70.5031 4.16606C64.08 0.333937 56.5972 -0.679576 49.4366 1.30307C42.276 3.28571 36.2898 8.03518 32.5806 14.6637C32.0865 15.5441 31.6426 16.454 31.2487 17.3788C30.2749 17.2678 29.2939 17.216 28.3129 17.216C20.8945 17.216 13.9273 20.1974 8.6857 25.6126C3.44415 31.0279 0.55127 38.2335 0.55127 45.8978C0.55127 61.7145 13.0035 74.5795 28.3129 74.5795C29.2939 74.5795 30.282 74.5203 31.2559 74.4167C31.6497 75.3415 32.0937 76.244 32.5878 77.1318C40.2353 90.8179 57.2488 95.5304 70.5102 87.622ZM28.3129 20.4045C36.7767 20.4045 44.682 24.9394 49.186 32.3004C49.3149 32.6037 49.451 32.8996 49.6156 33.1881C51.8498 37.183 56.812 38.559 60.6788 36.2508C63.1778 34.7565 64.7317 31.9822 64.7317 29.0009C64.7317 27.5361 64.3593 26.0935 63.6432 24.8211C61.4091 20.8262 56.4468 19.4502 52.5801 21.7583C50.7685 22.8384 49.4581 24.6065 48.8709 26.6262C48.026 25.6644 47.1166 24.7619 46.1571 23.9333C46.3003 23.6226 46.4507 23.3193 46.6154 23.0234C48.162 20.2565 50.6539 18.2813 53.6399 17.4527C56.6259 16.6242 59.7407 17.0532 62.4116 18.6438C67.9324 21.9359 69.8372 29.2598 66.6435 34.9636C63.4571 40.66 56.3824 42.6279 50.8616 39.3432C48.7349 37.9968 48.1406 37.072 46.9734 35.2447C46.5366 34.5641 46.0425 33.7947 45.3909 32.8774C41.4024 27.2994 35.0224 23.9629 28.3129 23.9629C22.6489 23.9629 17.3214 26.2415 13.3186 30.3769C9.31583 34.5123 7.11037 40.0164 7.11037 45.8681C7.11037 57.949 16.6268 67.7808 28.32 67.7808C28.6494 67.7808 28.9788 67.7734 29.3154 67.7512C29.5159 68.9423 29.7951 70.1259 30.1388 71.2874C29.5302 71.3318 28.9287 71.3614 28.32 71.3614C14.7149 71.3614 3.64464 59.9242 3.64464 45.8681C3.64464 39.0547 6.20814 32.6555 10.8697 27.8394C15.5241 23.053 21.718 20.3971 28.3129 20.4045ZM54.1197 24.5177C56.5113 23.0899 59.5832 23.9407 60.9652 26.4116C61.402 27.1958 61.6383 28.0909 61.6383 28.9935C61.6383 30.843 60.6788 32.5593 59.1321 33.484C56.7404 34.9118 53.6685 34.0611 52.2865 31.5902L52.3582 31.5458C52.2221 31.309 52.086 31.0723 51.95 30.8356C51.7352 30.2511 51.6206 29.6297 51.6206 29.0009C51.6134 27.1588 52.5801 25.4425 54.1197 24.5177ZM40.937 19.6425C45.9351 10.7058 57.034 7.62829 65.6912 12.792C69.8801 15.2925 72.8804 19.3318 74.1335 24.1553C75.3866 28.9861 74.7422 34.0315 72.3219 38.3593C69.4576 43.486 64.345 46.9409 58.6451 47.6067C57.6283 47.725 56.7762 47.7768 56.0315 47.8286C53.7831 47.9692 52.1505 48.0727 49.3435 49.6559L50.0954 51.0763L49.3149 49.6707C42.319 53.8431 39.913 63.1201 43.9516 70.3479C45.9065 73.8471 49.0714 76.355 52.8522 77.3981C56.633 78.4486 60.5857 77.9086 63.9726 75.8889C68.67 73.0851 71.2979 67.9879 71.2979 62.7502C71.2979 60.1831 70.6678 57.5865 69.3359 55.2043C69.2357 55.0194 69.1283 54.8344 69.0137 54.6569C70.0448 54.1242 71.0473 53.525 72.0068 52.8666C72.1142 53.0515 72.2288 53.2291 72.3362 53.414C77.3271 62.3507 74.3555 73.8249 65.7055 78.9887C61.5165 81.4892 56.633 82.155 51.9572 80.8603C47.2813 79.5657 43.3788 76.466 40.9585 72.1382C38.0942 67.0114 37.7505 60.7084 40.0491 55.2783C40.4572 54.3092 40.8368 53.5176 41.1733 52.8296C42.1829 50.7434 42.9062 49.2342 42.9849 45.9347V45.8903C42.9849 37.5455 36.4115 30.7542 28.3344 30.7542C20.2572 30.7542 13.6838 37.5455 13.6838 45.8903C13.6838 54.2352 20.2572 61.0265 28.3344 61.0265C28.542 61.0265 28.7497 61.0191 28.9573 61.0117C28.8857 62.2028 28.8857 63.3938 28.9573 64.5849C28.7497 64.5923 28.542 64.6071 28.3344 64.6071C18.3453 64.6071 10.2181 56.2104 10.2181 45.8903C10.2181 40.8893 12.1013 36.1917 15.5241 32.6555C18.9468 29.1193 23.4938 27.1736 28.3344 27.1736C34.0628 27.1736 39.5192 30.0218 42.9205 34.7861C43.5291 35.6368 43.9946 36.3692 44.4099 37.0202C45.6558 38.9659 46.5581 40.3715 49.2863 42.0952L50.0954 40.734L49.3221 42.1174C56.318 46.2898 65.2973 43.8041 69.3359 36.5764C70.6678 34.2016 71.2979 31.5976 71.2979 29.0305C71.2979 23.7928 68.67 18.6956 63.9726 15.8918C60.5857 13.8721 56.633 13.3321 52.8522 14.3826C49.0714 15.4257 45.9136 17.9336 43.9516 21.4328C43.8514 21.6178 43.7511 21.8027 43.6509 21.9951C42.6913 21.3366 41.6889 20.7374 40.6506 20.2122C40.7365 20.0198 40.8296 19.8275 40.937 19.6425ZM57.5925 54.4793C57.2775 54.4423 56.9552 54.4202 56.6259 54.4202C52.1577 54.4202 48.5272 58.1709 48.5272 62.7872C48.5272 67.4035 52.1577 71.1543 56.6259 71.1543C61.0941 71.1543 64.7245 67.4035 64.7245 62.7872C64.7245 60.5604 63.8795 58.5334 62.4975 57.0316C63.7292 56.7579 64.9321 56.3954 66.1065 55.9515C66.2927 56.2326 66.4717 56.5212 66.6364 56.8171C69.8228 62.5209 67.9253 69.8448 62.4045 73.1369C59.7264 74.7348 56.6115 75.1565 53.6256 74.328C50.6396 73.4994 48.1477 71.5241 46.601 68.7647C43.4146 63.0683 45.305 55.7592 50.8115 52.4597C53.0098 51.2243 54.0767 51.1577 56.1962 51.0245C56.9839 50.9727 57.8718 50.9209 58.9674 50.7878C65.641 50.011 71.6201 45.9643 74.9785 39.9646C76.8617 36.5912 77.8284 32.8404 77.8284 29.0453C77.8284 27.144 77.5849 25.2279 77.098 23.3415C75.6301 17.6895 72.1214 12.9622 67.2164 10.04C57.0913 3.99591 44.0948 7.5987 38.2446 18.0594C38.0799 18.3553 37.9224 18.6586 37.772 18.9619C36.6693 18.5476 35.5451 18.1999 34.3922 17.9336C34.6572 17.3714 34.9364 16.8165 35.2443 16.2691C38.5382 10.3729 43.8585 6.1561 50.2243 4.39539C56.5901 2.63469 63.2422 3.53724 68.9492 6.94028C74.6562 10.3433 78.7378 15.84 80.4492 22.4167C82.1534 28.9935 81.2798 35.8662 77.9859 41.7623C73.7683 49.3156 66.0134 54.1242 57.5925 54.4793ZM56.6259 57.69C56.8836 57.69 57.1486 57.6826 57.4064 57.6752C59.798 58.0673 61.6311 60.2053 61.6311 62.7798C61.6311 65.6354 59.3827 67.9584 56.6187 67.9584C53.8547 67.9584 51.6063 65.6354 51.6063 62.7798C51.6063 59.9242 53.8547 57.6013 56.6187 57.6013V57.69H56.6259ZM35.2587 75.5264C31.0267 67.9584 30.8764 58.6148 34.7932 50.8987C34.9794 50.6398 35.1584 50.3587 35.3231 50.0702C36.032 48.7977 36.4115 47.3551 36.4115 45.8903C36.4115 42.909 34.8577 40.1274 32.3586 38.6404C28.4919 36.3322 23.5296 37.7082 21.2955 41.7031C20.5866 42.9756 20.2071 44.4182 20.2071 45.8829C20.2071 48.8643 21.7609 51.6459 24.26 53.1329C26.1289 54.25 28.2484 54.5015 30.1961 54.0133C29.8166 55.2561 29.5159 56.5138 29.301 57.7862C28.9717 57.8158 28.6423 57.8306 28.3129 57.8306C21.94 57.8306 16.7485 52.4671 16.7485 45.8829C16.7485 39.2914 21.94 33.9353 28.3129 33.9353C34.6858 33.9353 39.8701 39.2914 39.8772 45.8681C39.8128 48.4426 39.333 49.434 38.3878 51.3944C38.037 52.1194 37.636 52.948 37.1992 53.9911C34.514 60.3459 34.9149 67.7216 38.2661 73.7213C41.0945 78.7889 45.6702 82.4139 51.1408 83.9305C56.6115 85.447 62.3257 84.6703 67.2307 81.7407C74.0261 77.6866 77.8284 70.3035 77.8284 62.728C77.8284 59.0143 76.9118 55.2487 74.9928 51.8087C74.8281 51.5128 74.6491 51.2242 74.4701 50.9357C75.3723 50.1589 76.2244 49.323 77.0264 48.4278C77.3701 48.9457 77.6923 49.4783 77.9931 50.0184C84.7956 62.1954 80.7427 77.8124 68.9636 84.8404C57.1844 91.8832 42.0612 87.7034 35.2587 75.5264ZM32.5806 48.4426C32.4517 48.672 32.33 48.9087 32.2082 49.1454C30.683 51.0911 27.9763 51.6681 25.8067 50.3809C24.26 49.4561 23.3005 47.7398 23.3005 45.8903C23.3005 44.9878 23.5296 44.0927 23.9736 43.3085C25.3556 40.8376 28.4275 39.9868 30.8191 41.4146C32.3658 42.3394 33.3253 44.0557 33.3253 45.9051C33.3253 46.8077 33.0962 47.7028 32.6522 48.487L32.5806 48.4426Z" fill="#FDFEFE"/>
</svg>
